<svg xmlns="http://www.w3.org/2000/svg" width="178.18519592285156" height="243.85614013671875" viewBox="-8.207351684570312 -18.47999382019043 178.18519592285156 243.85614013671875"><title>Neo4j Graph Visualization</title><desc>Created using Neo4j (http://www.neo4j.com/)</desc><g class="layer relationships"><g class="relationship" transform="translate(140.97784297821946 10.520006388377446) rotate(529.4866434851318)"><path class="outline" fill="#A5ABB6" stroke="none" d="M 21.40063509461097,12.933012701892217 L 21.90063509461097,12.06698729810778 A 61.83336041048122 61.83336041048122 0 0 0 41.41686101311421,19.291027276554004 L 41.232487170077775,20.27388346440855 A 62.83336041048122 62.83336041048122 0 0 1 21.40063509461097,12.933012701892217 Z M 60.636541913403995,20.862661024267247 L 60.51209804214722,19.870434375307127 A 61.83336041048122 61.83336041048122 0 0 0 80.43041496291734,13.842957394346573 L 79.09069642846816,11.15871555567902 L 86.91693234221648,11.164321120409765 L 82.2167063421829,17.421946512569978 L 80.87698780773373,14.737704673902424 A 62.83336041048122 62.83336041048122 0 0 1 60.636541913403995,20.862661024267247"/><text text-anchor="middle" pointer-events="none" font-size="8px" fill="#000000" x="50.92680319093098" y="23.8224114701879" transform="rotate(180 50.92680319093098 20.8224114701879)" font-family="sans-serif">trek</text></g><g class="relationship" transform="translate(33.52687193727336 30.460776736748777) rotate(456.88128887097196)"><path class="outline" fill="#A5ABB6" stroke="none" d="M 25 0.5 L 39.974275186982155 0.5 L 39.974275186982155 -0.5 L 25 -0.5 Z M 59.310212686982155 0.5 L 74.28448787396431 0.5 L 74.28448787396431 3.5 L 81.28448787396431 0 L 74.28448787396431 -3.5 L 74.28448787396431 -0.5 L 59.310212686982155 -0.5 Z"/><text text-anchor="middle" pointer-events="none" font-size="8px" fill="#000000" x="49.642243936982155" y="3" transform="rotate(180 49.642243936982155 0)" font-family="sans-serif">trek</text></g><g class="relationship" transform="translate(20.792648249922497 135.97964665920094) rotate(394.333111591985)"><path class="outline" fill="#A5ABB6" stroke="none" d="M 25 0.5 L 40.3747108515861 0.5 L 40.3747108515861 -0.5 L 25 -0.5 Z M 59.7106483515861 0.5 L 75.0853592031722 0.5 L 75.0853592031722 3.5 L 82.0853592031722 0 L 75.0853592031722 -3.5 L 75.0853592031722 -0.5 L 59.7106483515861 -0.5 Z"/><text text-anchor="middle" pointer-events="none" font-size="8px" fill="#000000" x="50.0426796015861" y="3" font-family="sans-serif">trek</text></g><g class="relationship" transform="translate(140.97784297821946 10.520006388377446) rotate(529.4866434851318)"><path class="outline" fill="#A5ABB6" stroke="none" d="M 25 0.5 L 40.136947790556384 0.5 L 40.136947790556384 -0.5 L 25 -0.5 Z M 62.148666540556384 0.5 L 77.28561433111277 0.5 L 77.28561433111277 3.5 L 84.28561433111277 0 L 77.28561433111277 -3.5 L 77.28561433111277 -0.5 L 62.148666540556384 -0.5 Z"/><text text-anchor="middle" pointer-events="none" font-size="8px" fill="#000000" x="51.142807165556384" y="3" transform="rotate(180 51.142807165556384 0)" font-family="sans-serif">road</text></g><g class="relationship" transform="translate(140.97784297821946 10.520006388377446) rotate(529.4866434851318)"><path class="outline" fill="#A5ABB6" stroke="none" d="M 21.40063509461097,-12.933012701892217 L 21.90063509461097,-12.06698729810778 A 61.83336041048122 61.83336041048122 0 0 1 22.37566976883062,-12.33845358758299 L 21.88335226693627,-13.208869279840727 A 62.83336041048122 62.83336041048122 0 0 0 21.40063509461097,-12.933012701892217 Z M 80.37843344922203,-14.983786513265244 L 79.93979515311122,-14.085122813550498 A 61.83336041048122 61.83336041048122 0 0 1 80.43041496291734,-13.842957394346573 L 79.09069642846816,-11.15871555567902 L 86.91693234221648,-11.164321120409765 L 82.2167063421829,-17.421946512569978 L 80.87698780773373,-14.737704673902424 A 62.83336041048122 62.83336041048122 0 0 0 80.37843344922203,-14.983786513265244"/><text text-anchor="middle" pointer-events="none" font-size="8px" fill="#000000" x="50.92680319093098" y="-17.8224114701879" transform="rotate(180 50.92680319093098 -20.8224114701879)" font-family="sans-serif">PublicTransp…</text></g></g><g class="layer nodes"><g class="node" transform="translate(140.97784297821946,10.520006388377446)"><circle class="outline" cx="0" cy="0" r="25" fill="#8DCC93" stroke="#5db665" stroke-width="2px"/><text text-anchor="middle" pointer-events="none" font-family="sans-serif" dy="1.5625" font-size="25" fill="#2A2C34"/><text text-anchor="middle" pointer-events="none" x="0" y="5" font-size="10px" fill="#2A2C34" font-family="sans-serif"> Darjeeling</text></g><g class="node" transform="translate(109.22079210208304,196.37614929415506)"><circle class="outline" cx="0" cy="0" r="25" fill="#D9C8AE" stroke="#c0a378" stroke-width="2px"/><text text-anchor="middle" pointer-events="none" font-family="sans-serif" dy="1.5625" font-size="25" fill="#2A2C34"/><text text-anchor="middle" pointer-events="none" x="0" y="5" font-size="10px" fill="#2A2C34" font-family="sans-serif"> Sandak…</text></g><g class="node" transform="translate(33.52687193727336,30.460776736748777)"><circle class="outline" cx="0" cy="0" r="25" fill="#8DCC93" stroke="#5db665" stroke-width="2px"/><text text-anchor="middle" pointer-events="none" font-family="sans-serif" dy="1.5625" font-size="25" fill="#2A2C34"/><text text-anchor="middle" pointer-events="none" x="0" y="5" font-size="10px" fill="#2A2C34" font-family="sans-serif"> Rimbik</text></g><g class="node" transform="translate(20.792648249922497,135.97964665920094)"><circle class="outline" cx="0" cy="0" r="25" fill="#F16667" stroke="#eb2728" stroke-width="2px"/><text text-anchor="middle" pointer-events="none" font-family="sans-serif" dy="1.5625" font-size="25" fill="#FFFFFF"/><text text-anchor="middle" pointer-events="none" x="0" y="5" font-size="10px" fill="#FFFFFF" font-family="sans-serif"> BhikeBh…</text></g></g></svg>