<svg xmlns="http://www.w3.org/2000/svg" width="162.3841094970703" height="200.3180389404297" viewBox="9.771514892578125 -6.458512783050537 162.3841094970703 200.3180389404297"><title>Neo4j Graph Visualization</title><desc>Created using Neo4j (http://www.neo4j.com/)</desc><g class="layer relationships"><g class="relationship" transform="translate(38.771513319957066 63.22570421537519) rotate(432.93797036707036)"><path class="outline" fill="#A5ABB6" stroke="none" d="M 24.018736134675446,-6.953439040707552 L 24.277555179777966,-5.987513214418485 A 104.32910005887527 104.32910005887527 0 0 1 25.858967542593845,-6.3980070624542975 L 25.61530641950851,-7.367867494215901 A 105.32910005887527 105.32910005887527 0 0 0 24.018736134675446,-6.953439040707552 Z M 73.65864623178969,-8.137641510668402 L 73.44618136703855,-7.160472804023385 A 104.32910005887527 104.32910005887527 0 0 1 75.03993286961605,-6.80085299286986 L 74.35670969536879,-3.8796877982648867 L 81.9698555194022,-5.693526452060433 L 75.95089710194573,-10.695739919009824 L 75.26767392769847,-7.77457472440485 A 105.32910005887527 105.32910005887527 0 0 0 73.65864623178969,-8.137641510668402"/><text text-anchor="middle" pointer-events="none" font-size="8px" fill="#000000" x="49.6005053962711" y="-7.028987807187576" font-family="sans-serif">Cheapest…</text></g><g class="relationship" transform="translate(38.771513319957066 63.22570421537519) rotate(349.06073204226936)"><path class="outline" fill="#A5ABB6" stroke="none" d="M 12.066987298107785,-21.900635094610966 L 12.933012701892222,-21.400635094610966 A 44.28103122179211 44.28103122179211 0 0 1 21.985646590761938,-32.46496966163022 L 21.324057119002827,-33.2148358969399 A 45.28103122179211 45.28103122179211 0 0 0 12.066987298107785,-21.900635094610966 Z M 77.31951673684898,-36.30595632549887 L 76.74448552866878,-35.48782485096754 A 44.28103122179211 44.28103122179211 0 0 1 86.95997232057772,-25.487149406719592 L 84.54278866267208,-23.710291741076688 L 91.50883748339542,-20.143197149213602 L 90.1828838644519,-27.85629296091013 L 87.76570020654626,-26.079435295267228 A 45.28103122179211 45.28103122179211 0 0 0 77.31951673684898,-36.30595632549887"/><text text-anchor="middle" pointer-events="none" font-size="8px" fill="#000000" x="48.81321897011907" y="-40.97307390959914" font-family="sans-serif">CheapestFlight</text></g><g class="relationship" transform="translate(69.96444597846052 164.85952439878997) rotate(252.93797036707036)"><path class="outline" fill="#A5ABB6" stroke="none" d="M 24.018736134675446,-6.953439040707552 L 24.277555179777966,-5.987513214418485 A 104.32910005887527 104.32910005887527 0 0 1 25.858967542593845,-6.3980070624542975 L 25.61530641950851,-7.367867494215901 A 105.32910005887527 105.32910005887527 0 0 0 24.018736134675446,-6.953439040707552 Z M 73.65864623178969,-8.137641510668402 L 73.44618136703855,-7.160472804023385 A 104.32910005887527 104.32910005887527 0 0 1 75.03993286961605,-6.80085299286986 L 74.35670969536879,-3.8796877982648867 L 81.9698555194022,-5.693526452060433 L 75.95089710194573,-10.695739919009824 L 75.26767392769847,-7.77457472440485 A 105.32910005887527 105.32910005887527 0 0 0 73.65864623178969,-8.137641510668402"/><text text-anchor="middle" pointer-events="none" font-size="8px" fill="#000000" x="49.6005053962711" y="-7.028987807187576" transform="rotate(180 49.6005053962711 -10.028987807187576)" font-family="sans-serif">Cheapest…</text></g><g class="relationship" transform="translate(38.771513319957066 63.22570421537519) rotate(349.06073204226936)"><path class="outline" fill="#A5ABB6" stroke="none" d="M 21.40063509461097,-12.933012701892217 L 21.90063509461097,-12.06698729810778 A 58.7617511022502 58.7617511022502 0 0 1 22.625343921037253,-12.478573439937577 L 22.137676923591332,-13.35160316428955 A 59.7617511022502 59.7617511022502 0 0 0 21.40063509461097,-12.933012701892217 Z M 77.12212091700147,-15.06408492814257 L 76.68972712340172,-14.16240005677318 A 58.7617511022502 58.7617511022502 0 0 1 77.43864410101258,-13.796709756255494 L 76.10322779884551,-11.110324955094947 L 83.92944468741504,-11.12846918472572 L 79.2191991705687,-17.37855615780289 L 77.88378286840162,-14.692171356642342 A 59.7617511022502 59.7617511022502 0 0 0 77.12212091700147,-15.06408492814257"/><text text-anchor="middle" pointer-events="none" font-size="8px" fill="#000000" x="49.43670734597488" y="-17.41084808544158" font-family="sans-serif">CheapestFli…</text></g><g class="relationship" transform="translate(38.771513319957066 63.22570421537519) rotate(349.06073204226936)"><path class="outline" fill="#A5ABB6" stroke="none" d="M 25 0.5 L 25.534945473543146 0.5 L 25.534945473543146 -0.5 L 25 -0.5 Z M 73.78103922354315 0.5 L 74.3159846970863 0.5 L 74.3159846970863 3.5 L 81.3159846970863 0 L 74.3159846970863 -3.5 L 74.3159846970863 -0.5 L 73.78103922354315 -0.5 Z"/><text text-anchor="middle" pointer-events="none" font-size="8px" fill="#000000" x="49.65799234854315" y="3" font-family="sans-serif">Cheapest…</text></g><g class="relationship" transform="translate(38.771513319957066 63.22570421537519) rotate(349.06073204226936)"><path class="outline" fill="#A5ABB6" stroke="none" d="M 21.40063509461097,12.933012701892217 L 21.90063509461097,12.06698729810778 A 58.7617511022502 58.7617511022502 0 0 0 22.625343921037256,12.478573439937577 L 22.137676923591336,13.35160316428955 A 59.7617511022502 59.7617511022502 0 0 1 21.40063509461097,12.933012701892217 Z M 77.12212091700148,15.064084928142563 L 76.68972712340174,14.16240005677318 A 58.7617511022502 58.7617511022502 0 0 0 77.43864410101258,13.796709756255494 L 76.10322779884551,11.110324955094947 L 83.92944468741504,11.12846918472572 L 79.2191991705687,17.37855615780289 L 77.88378286840162,14.692171356642342 A 59.7617511022502 59.7617511022502 0 0 1 77.12212091700148,15.064084928142563"/><text text-anchor="middle" pointer-events="none" font-size="8px" fill="#000000" x="49.43670734597489" y="23.41084808544158" font-family="sans-serif">CheapestFli…</text></g><g class="relationship" transform="translate(38.771513319957066 63.22570421537519) rotate(349.06073204226936)"><path class="outline" fill="#A5ABB6" stroke="none" d="M 12.066987298107785,21.900635094610966 L 12.933012701892222,21.400635094610966 A 44.28103122179211 44.28103122179211 0 0 0 21.985646590761938,32.46496966163022 L 21.324057119002827,33.21483589693989 A 45.28103122179211 45.28103122179211 0 0 1 12.066987298107785,21.900635094610966 Z M 77.319516736849,36.30595632549887 L 76.74448552866878,35.48782485096754 A 44.28103122179211 44.28103122179211 0 0 0 86.95997232057772,25.487149406719592 L 84.54278866267208,23.710291741076688 L 91.50883748339542,20.143197149213602 L 90.1828838644519,27.85629296091013 L 87.76570020654626,26.079435295267228 A 45.28103122179211 45.28103122179211 0 0 1 77.319516736849,36.30595632549887"/><text text-anchor="middle" pointer-events="none" font-size="8px" fill="#000000" x="48.81321897011907" y="46.97307390959914" font-family="sans-serif">CheapestFlight</text></g></g><g class="layer nodes"><g class="node" transform="translate(69.96444597846052,164.85952439878997)"><circle class="outline" cx="0" cy="0" r="25" fill="#ECB5C9" stroke="#da7298" stroke-width="2px"/><text text-anchor="middle" pointer-events="none" font-family="sans-serif" dy="1.5625" font-size="25" fill="#2A2C34"/><text text-anchor="middle" pointer-events="none" x="0" y="5" font-size="10px" fill="#2A2C34" font-family="sans-serif"> MSN</text></g><g class="node" transform="translate(143.1556179851031,43.05029107544363)"><circle class="outline" cx="0" cy="0" r="25" fill="#ECB5C9" stroke="#da7298" stroke-width="2px"/><text text-anchor="middle" pointer-events="none" font-family="sans-serif" dy="1.5625" font-size="25" fill="#2A2C34"/><text text-anchor="middle" pointer-events="none" x="0" y="5" font-size="10px" fill="#2A2C34" font-family="sans-serif"> GRR</text></g><g class="node" transform="translate(38.771513319957066,63.22570421537519)"><circle class="outline" cx="0" cy="0" r="25" fill="#ECB5C9" stroke="#da7298" stroke-width="2px"/><text text-anchor="middle" pointer-events="none" font-family="sans-serif" dy="1.5625" font-size="25" fill="#2A2C34"/><text text-anchor="middle" pointer-events="none" x="0" y="5" font-size="10px" fill="#2A2C34" font-family="sans-serif"> ORD</text></g></g></svg>