<svg xmlns="http://www.w3.org/2000/svg" width="163.66551208496094" height="243.30471801757812" viewBox="-1.3812808990478516 -20.67197036743164 163.66551208496094 243.30471801757812"><title>Neo4j Graph Visualization</title><desc>Created using Neo4j (http://www.neo4j.com/)</desc><g class="layer relationships"><g class="relationship" transform="translate(133.2842204275592 8.328028624776179) rotate(522.003592063546)"><path class="outline" fill="#A5ABB6" stroke="none" d="M 21.40063509461097,12.933012701892217 L 21.90063509461097,12.06698729810778 A 59.94103251272594 59.94103251272594 0 0 0 40.504875143068524,19.010036203729292 L 40.31525084513051,19.99189292730535 A 60.94103251272594 60.94103251272594 0 0 1 21.40063509461097,12.933012701892217 Z M 59.71889325411257,20.590150118765052 L 59.59011726231263,19.598476410362963 A 59.94103251272594 59.94103251272594 0 0 0 78.58675206469961,13.814745601341741 L 77.24965794433788,11.129195506241281 L 85.07588463999431,11.142451003014445 L 80.36954422518193,17.395479061475687 L 79.0324501048202,14.709928966375227 A 60.94103251272594 60.94103251272594 0 0 1 59.71889325411257,20.590150118765052"/><text text-anchor="middle" pointer-events="none" font-size="8px" fill="#000000" x="50.00850582909531" y="23.568855007129052" transform="rotate(180 50.00850582909531 20.568855007129052)" font-family="sans-serif">trek</text></g><g class="relationship" transform="translate(31.08591507940549 41.527187524515355) rotate(451.8626557647508)"><path class="outline" fill="#A5ABB6" stroke="none" d="M 25 0.5 L 40.16734989458911 0.5 L 40.16734989458911 -0.5 L 25 -0.5 Z M 59.50328739458911 0.5 L 74.67063728917822 0.5 L 74.67063728917822 3.5 L 81.67063728917822 0 L 74.67063728917822 -3.5 L 74.67063728917822 -0.5 L 59.50328739458911 -0.5 Z"/><text text-anchor="middle" pointer-events="none" font-size="8px" fill="#000000" x="49.83531864458911" y="3" transform="rotate(180 49.83531864458911 0)" font-family="sans-serif">trek</text></g><g class="relationship" transform="translate(27.618719366628845 148.14146149178825) rotate(385.0749255355838)"><path class="outline" fill="#A5ABB6" stroke="none" d="M 25 0.5 L 40.50233892704344 0.5 L 40.50233892704344 -0.5 L 25 -0.5 Z M 59.83827642704344 0.5 L 75.34061535408688 0.5 L 75.34061535408688 3.5 L 82.34061535408688 0 L 75.34061535408688 -3.5 L 75.34061535408688 -0.5 L 59.83827642704344 -0.5 Z"/><text text-anchor="middle" pointer-events="none" font-size="8px" fill="#000000" x="50.17030767704344" y="3" font-family="sans-serif">trek</text></g><g class="relationship" transform="translate(133.2842204275592 8.328028624776179) rotate(522.003592063546)"><path class="outline" fill="#A5ABB6" stroke="none" d="M 25 0.5 L 39.22187500791576 0.5 L 39.22187500791576 -0.5 L 25 -0.5 Z M 61.23359375791576 0.5 L 75.45546876583153 0.5 L 75.45546876583153 3.5 L 82.45546876583153 0 L 75.45546876583153 -3.5 L 75.45546876583153 -0.5 L 61.23359375791576 -0.5 Z"/><text text-anchor="middle" pointer-events="none" font-size="8px" fill="#000000" x="50.22773438291576" y="3" transform="rotate(180 50.22773438291576 0)" font-family="sans-serif">road</text></g><g class="relationship" transform="translate(133.2842204275592 8.328028624776179) rotate(522.003592063546)"><path class="outline" fill="#A5ABB6" stroke="none" d="M 21.40063509461097,-12.933012701892217 L 21.90063509461097,-12.06698729810778 A 59.94103251272594 59.94103251272594 0 0 1 23.47118000875268,-12.942598711885395 L 22.997381507931195,-13.823231995732485 A 60.94103251272594 60.94103251272594 0 0 0 21.40063509461097,-12.933012701892217 Z M 77.38389390030119,-15.500088406057088 L 76.96524752203382,-14.591939073643303 A 59.94103251272594 59.94103251272594 0 0 1 78.58675206469961,-13.814745601341741 L 77.24965794433788,-11.129195506241281 L 85.07588463999431,-11.142451003014445 L 80.36954422518193,-17.395479061475687 L 79.0324501048202,-14.709928966375227 A 60.94103251272594 60.94103251272594 0 0 0 77.38389390030119,-15.500088406057088"/><text text-anchor="middle" pointer-events="none" font-size="8px" fill="#000000" x="50.008505829095284" y="-17.568855007129052" transform="rotate(180 50.008505829095284 -20.568855007129052)" font-family="sans-serif">PublicTrans…</text></g></g><g class="layer nodes"><g class="node" transform="translate(133.2842204275592,8.328028624776179)"><circle class="outline" cx="0" cy="0" r="25" fill="#8DCC93" stroke="#5db665" stroke-width="2px"/><text text-anchor="middle" pointer-events="none" font-family="sans-serif" dy="1.5625" font-size="25" fill="#2A2C34"/><text text-anchor="middle" pointer-events="none" x="0" y="5" font-size="10px" fill="#2A2C34" font-family="sans-serif"> Darjeeling</text></g><g class="node" transform="translate(124.8429492470298,193.63274448927015)"><circle class="outline" cx="0" cy="0" r="25" fill="#D9C8AE" stroke="#c0a378" stroke-width="2px"/><text text-anchor="middle" pointer-events="none" font-family="sans-serif" dy="1.5625" font-size="25" fill="#2A2C34"/><text text-anchor="middle" pointer-events="none" x="0" y="5" font-size="10px" fill="#2A2C34" font-family="sans-serif"> Sandak…</text></g><g class="node" transform="translate(31.08591507940549,41.527187524515355)"><circle class="outline" cx="0" cy="0" r="25" fill="#8DCC93" stroke="#5db665" stroke-width="2px"/><text text-anchor="middle" pointer-events="none" font-family="sans-serif" dy="1.5625" font-size="25" fill="#2A2C34"/><text text-anchor="middle" pointer-events="none" x="0" y="5" font-size="10px" fill="#2A2C34" font-family="sans-serif"> Rimbik</text></g><g class="node" transform="translate(27.618719366628845,148.14146149178825)"><circle class="outline" cx="0" cy="0" r="25" fill="#F16667" stroke="#eb2728" stroke-width="2px"/><text text-anchor="middle" pointer-events="none" font-family="sans-serif" dy="1.5625" font-size="25" fill="#FFFFFF"/><text text-anchor="middle" pointer-events="none" x="0" y="5" font-size="10px" fill="#FFFFFF" font-family="sans-serif"> BhikeBh…</text></g></g></svg>