<svg xmlns="http://www.w3.org/2000/svg" width="387.6100158691406" height="356.4364013671875" viewBox="-75.27621459960938 -77.85223388671875 387.6100158691406 356.4364013671875"><title>Neo4j Graph Visualization</title><desc>Created using Neo4j (http://www.neo4j.com/)</desc><g class="layer relationships"><g class="relationship" transform="translate(28.72018792138817 -48.85223815567267) rotate(385.6283652650029)"><path class="outline" fill="#A5ABB6" stroke="none" d="M 24.018736134675446,-6.953439040707552 L 24.277555179777966,-5.987513214418485 A 181.45649460523887 181.45649460523887 0 0 1 59.44603855315833,-11.786679891897194 L 59.3810317132893,-12.784564710285707 A 182.45649460523887 182.45649460523887 0 0 0 24.018736134675446,-6.953439040707552 Z M 78.75960420095822,-13.015554745457962 L 78.7184017632151,-12.016403926450124 A 181.45649460523887 181.45649460523887 0 0 1 114.01512381823918,-7.057173229327222 L 113.30795973347931,-4.141711180658824 L 120.93572927925875,-5.893034039665595 L 114.95800926458567,-10.944455960885087 L 114.2508451798258,-8.028993912216688 A 182.45649460523887 182.45649460523887 0 0 0 78.75960420095822,-13.015554745457962"/><text text-anchor="middle" pointer-events="none" font-size="8px" fill="#000000" x="69.0732084239604" y="-9.65756822353012" font-family="sans-serif">trek</text></g><g class="relationship" transform="translate(159.66336704709516 13.964947050780097) rotate(378.14260349071293)"><path class="outline" fill="#A5ABB6" stroke="none" d="M 21.40063509461097,-12.933012701892217 L 21.90063509461097,-12.06698729810778 A 83.27324638287838 83.27324638287838 0 0 1 51.826537801394416,-22.395935261708104 L 51.68590775521113,-23.385997476980705 A 84.27324638287838 84.27324638287838 0 0 0 21.40063509461097,-12.933012701892217 Z M 71.087698037441,-23.884565488423092 L 70.99810329562831,-22.88858718432229 A 83.27324638287838 83.27324638287838 0 0 1 101.41500562598713,-14.11026892419727 L 100.05042279830029,-11.438581497423286 L 107.87637342640757,-11.371523564056975 L 103.23444939623626,-17.67251882656258 L 101.86986656854941,-15.000831399788597 A 84.27324638287838 84.27324638287838 0 0 0 71.087698037441,-23.884565488423092"/><text text-anchor="middle" pointer-events="none" font-size="8px" fill="#000000" x="61.385246690352744" y="-20.69584128846037" font-family="sans-serif">trek</text></g><g class="relationship" transform="translate(283.3338001945786 54.4884818102437) rotate(531.6711653842942)"><path class="outline" fill="#A5ABB6" stroke="none" d="M 21.40063509461097,12.933012701892217 L 21.90063509461097,12.06698729810778 A 47.31520830293026 47.31520830293026 0 0 0 34.46258810003924,17.086634975930593 L 34.22808313759676,18.05874989845254 A 48.31520830293026 48.31520830293026 0 0 1 21.40063509461097,12.933012701892217 Z M 53.62180132850281,18.7283874875516 L 53.45490642386183,17.742412796798902 A 47.31520830293026 47.31520830293026 0 0 0 66.33317164964802,13.60117978061085 L 65.0159461856558,10.905828768773898 L 72.84186158793294,10.976878866601833 L 68.0894722683043,17.194981129726788 L 66.77224680431209,14.499630117889835 A 48.31520830293026 48.31520830293026 0 0 1 53.62180132850281,18.7283874875516"/><text text-anchor="middle" pointer-events="none" font-size="8px" fill="#000000" x="43.908231200463064" y="21.877545491708908" transform="rotate(180 43.908231200463064 18.877545491708908)" font-family="sans-serif">trek</text></g><g class="relationship" transform="translate(189.03584073207614 68.29353620119598) rotate(463.3616994700677)"><path class="outline" fill="#A5ABB6" stroke="none" d="M 25 0.5 L 49.7894215562428 0.5 L 49.7894215562428 -0.5 L 25 -0.5 Z M 69.1253590562428 0.5 L 93.9147806124856 0.5 L 93.9147806124856 3.5 L 100.9147806124856 0 L 93.9147806124856 -3.5 L 93.9147806124856 -0.5 L 69.1253590562428 -0.5 Z"/><text text-anchor="middle" pointer-events="none" font-size="8px" fill="#000000" x="59.4573903062428" y="3" transform="rotate(180 59.4573903062428 0)" font-family="sans-serif">trek</text></g><g class="relationship" transform="translate(28.72018792138817 -48.85223815567267) rotate(385.6283652650029)"><path class="outline" fill="#A5ABB6" stroke="none" d="M 24.018736134675446,6.953439040707552 L 24.277555179777966,5.987513214418485 A 181.45649460523887 181.45649460523887 0 0 0 58.11497729685985,11.695052911839525 L 58.04263502786113,12.692432777345203 A 182.45649460523887 182.45649460523887 0 0 1 24.018736134675446,6.953439040707552 Z M 80.09981670189438,12.955351481699068 L 80.05126888297512,11.956530622246191 A 181.45649460523887 181.45649460523887 0 0 0 114.01512381823918,7.057173229327222 L 113.30795973347931,4.141711180658824 L 120.93572927925875,5.893034039665595 L 114.95800926458567,10.944455960885087 L 114.2508451798258,8.028993912216688 A 182.45649460523887 182.45649460523887 0 0 1 80.09981670189438,12.955351481699068"/><text text-anchor="middle" pointer-events="none" font-size="8px" fill="#000000" x="69.07320842396045" y="15.65756822353012" font-family="sans-serif">road</text></g><g class="relationship" transform="translate(159.66336704709516 13.964947050780097) rotate(378.14260349071293)"><path class="outline" fill="#A5ABB6" stroke="none" d="M 25 0.5 L 50.56435828309537 0.5 L 50.56435828309537 -0.5 L 25 -0.5 Z M 72.57607703309537 0.5 L 98.14043531619075 0.5 L 98.14043531619075 3.5 L 105.14043531619075 0 L 98.14043531619075 -3.5 L 98.14043531619075 -0.5 L 72.57607703309537 -0.5 Z"/><text text-anchor="middle" pointer-events="none" font-size="8px" fill="#000000" x="61.57021765809537" y="3" font-family="sans-serif">road</text></g><g class="relationship" transform="translate(159.66336704709516 13.964947050780097) rotate(378.14260349071293)"><path class="outline" fill="#A5ABB6" stroke="none" d="M 21.40063509461097,12.933012701892217 L 21.90063509461097,12.06698729810778 A 83.27324638287838 83.27324638287838 0 0 0 38.68847447260606,19.429618342003153 L 38.39007390708478,20.38405906960051 A 84.27324638287838 84.27324638287838 0 0 1 21.40063509461097,12.933012701892217 Z M 84.52016390395619,21.569464483371192 L 84.27117734513092,20.600957543011774 A 83.27324638287838 83.27324638287838 0 0 0 101.41500562598713,14.11026892419727 L 100.05042279830029,11.438581497423286 L 107.87637342640757,11.371523564056975 L 103.23444939623626,17.67251882656258 L 101.86986656854941,15.000831399788597 A 84.27324638287838 84.27324638287838 0 0 1 84.52016390395619,21.569464483371192"/><text text-anchor="middle" pointer-events="none" font-size="8px" fill="#000000" x="61.385246690352766" y="26.69584128846037" font-family="sans-serif">twowheeler</text></g><g class="relationship" transform="translate(283.3338001945786 54.4884818102437) rotate(531.6711653842942)"><path class="outline" fill="#A5ABB6" stroke="none" d="M 25 0.5 L 25.813669384953783 0.5 L 25.813669384953783 -0.5 L 25 -0.5 Z M 62.48945063495378 0.5 L 63.30312001990757 0.5 L 63.30312001990757 3.5 L 70.30312001990757 0 L 63.30312001990757 -3.5 L 63.30312001990757 -0.5 L 62.48945063495378 -0.5 Z"/><text text-anchor="middle" pointer-events="none" font-size="8px" fill="#000000" x="44.15156000995378" y="3" transform="rotate(180 44.15156000995378 0)" font-family="sans-serif">twowh…</text></g><g class="relationship" transform="translate(283.3338001945786 54.4884818102437) rotate(531.6711653842942)"><path class="outline" fill="#A5ABB6" stroke="none" d="M 21.40063509461097,-12.933012701892217 L 21.90063509461097,-12.06698729810778 A 47.31520830293026 47.31520830293026 0 0 1 33.180115822905385,-16.75821026384746 L 32.91850599665415,-17.723383978164627 A 48.31520830293026 48.31520830293026 0 0 0 21.40063509461097,-12.933012701892217 Z M 54.95139141300841,-18.484148269254604 L 54.756977428326024,-17.503228699381566 A 47.31520830293026 47.31520830293026 0 0 1 66.33317164964802,-13.60117978061085 L 65.0159461856558,-10.905828768773898 L 72.84186158793294,-10.976878866601833 L 68.0894722683043,-17.194981129726788 L 66.77224680431209,-14.499630117889835 A 48.31520830293026 48.31520830293026 0 0 0 54.95139141300841,-18.484148269254604"/><text text-anchor="middle" pointer-events="none" font-size="8px" fill="#000000" x="43.90823120046306" y="-15.877545491708908" transform="rotate(180 43.90823120046306 -18.877545491708908)" font-family="sans-serif">road</text></g><g class="relationship" transform="translate(28.72018792138817 -48.85223815567267) rotate(362.12548818118347)"><path class="outline" fill="#A5ABB6" stroke="none" d="M 21.40063509461097,12.933012701892217 L 21.90063509461097,12.06698729810778 A 33.42647223855655 33.42647223855655 0 0 0 22.348851837340433,12.32117936892108 L 21.86226087253657,13.194809286547098 A 34.42647223855655 34.42647223855655 0 0 1 21.40063509461097,12.933012701892217 Z M 52.92818378983751,14.428275748193897 L 52.51239002285617,13.518816819302955 A 33.42647223855655 33.42647223855655 0 0 0 52.97934931053017,13.300961635792525 L 51.69005877510202,10.592137183146065 L 59.51482145594326,10.744087795234584 L 54.6984033577677,16.91272757265447 L 53.40911282233955,14.203903120008011 A 34.42647223855655 34.42647223855655 0 0 1 52.92818378983751,14.428275748193897"/><text text-anchor="middle" pointer-events="none" font-size="8px" fill="#000000" x="37.26788772924217" y="20.018574935133493" font-family="sans-serif">Publi…</text></g><g class="relationship" transform="translate(110.75206918690577 -45.807723853919946) rotate(494.8835930908974)"><path class="outline" fill="#A5ABB6" stroke="none" d="M 24.018736134675446,-6.953439040707552 L 24.277555179777966,-5.987513214418485 A 174.88947820108154 174.88947820108154 0 0 1 57.77944415228297,-11.55070267309685 L 57.712185453275055,-12.548438242978847 A 175.88947820108154 175.88947820108154 0 0 0 24.018736134675446,-6.953439040707552 Z M 77.09198806853358,-12.78462495669001 L 77.04906506245335,-11.785546573604364 A 174.88947820108154 174.88947820108154 0 0 1 110.67658343341108,-7.040480726842739 L 109.97097836905398,-4.124640969045062 L 117.5978103789985,-5.880042202975794 L 111.6173901858872,-10.928267070572975 L 110.9117851215301,-8.012427312775298 A 175.88947820108154 175.88947820108154 0 0 0 77.09198806853358,-12.78462495669001"/><text text-anchor="middle" pointer-events="none" font-size="8px" fill="#000000" x="67.40492429305097" y="-9.433703884624094" transform="rotate(180 67.40492429305097 -12.433703884624094)" font-family="sans-serif">trek</text></g><g class="relationship" transform="translate(10.620167356171361 54.73187959137354) rotate(427.69352250738274)"><path class="outline" fill="#A5ABB6" stroke="none" d="M 24.018736134675446,-6.953439040707552 L 24.277555179777966,-5.987513214418485 A 115.95736631480764 115.95736631480764 0 0 1 42.91461441353125,-9.37940100462528 L 42.81651874311418,-10.374577993630467 A 116.95736631480764 116.95736631480764 0 0 0 24.018736134675446,-6.953439040707552 Z M 62.21092429093114,-10.670102637561982 L 62.1431953864718,-9.672398876167478 A 115.95736631480764 115.95736631480764 0 0 1 80.87494675309689,-6.849922941332745 L 80.18714008079955,-3.9298335622994154 L 87.80312308289089,-5.7317222691445044 L 81.79202231616001,-10.74337544671052 L 81.10421564386267,-7.823286067677189 A 116.95736631480764 116.95736631480764 0 0 0 62.21092429093114,-10.670102637561982"/><text text-anchor="middle" pointer-events="none" font-size="8px" fill="#000000" x="52.515202509476666" y="-7.42514717500319" font-family="sans-serif">trek</text></g><g class="relationship" transform="translate(53.183048164327346 158.4774967498242) rotate(376.8449409682346)"><path class="outline" fill="#A5ABB6" stroke="none" d="M 24.018736134675446,6.953439040707552 L 24.277555179777966,5.987513214418485 A 114.76705566536312 114.76705566536312 0 0 0 42.616613494307536,9.334016148396373 L 42.51758820019225,10.329101064936353 A 115.76705566536312 115.76705566536312 0 0 1 24.018736134675446,6.953439040707552 Z M 61.91236446504982,10.626122985099727 L 61.84385698264775,9.628472382506345 A 114.76705566536312 114.76705566536312 0 0 0 80.27679123401992,6.845115302391587 L 79.58943362572569,3.9249201859104916 L 87.20513944052485,5.727980069118571 L 81.1932680450789,10.738708791033048 L 80.50591043678466,7.8185136745519515 A 115.76705566536312 115.76705566536312 0 0 1 61.91236446504982,10.626122985099727"/><text text-anchor="middle" pointer-events="none" font-size="8px" fill="#000000" x="52.21640090439827" y="13.38459110966771" font-family="sans-serif">trek</text></g><g class="relationship" transform="translate(28.72018792138817 -48.85223815567267) rotate(362.12548818118347)"><path class="outline" fill="#A5ABB6" stroke="none" d="M 25 0.5 L 26.53831990566522 0.5 L 26.53831990566522 -0.5 L 25 -0.5 Z M 48.55003865566522 0.5 L 50.08835856133044 0.5 L 50.08835856133044 3.5 L 57.08835856133044 0 L 50.08835856133044 -3.5 L 50.08835856133044 -0.5 L 48.55003865566522 -0.5 Z"/><text text-anchor="middle" pointer-events="none" font-size="8px" fill="#000000" x="37.54417928066522" y="3" font-family="sans-serif">road</text></g><g class="relationship" transform="translate(28.72018792138817 -48.85223815567267) rotate(362.12548818118347)"><path class="outline" fill="#A5ABB6" stroke="none" d="M 21.40063509461097,-12.933012701892217 L 21.90063509461097,-12.06698729810778 A 33.42647223855655 33.42647223855655 0 0 1 27.951521107715912,-14.799143616531431 L 27.632541885796265,-15.746905324970605 A 34.42647223855655 34.42647223855655 0 0 0 21.40063509461097,-12.933012701892217 Z M 46.97372553652674,-16.51484328146509 L 46.73089338501531,-15.544774961091562 A 33.42647223855655 33.42647223855655 0 0 1 52.97934931053017,-13.300961635792525 L 51.69005877510202,-10.592137183146065 L 59.51482145594326,-10.744087795234584 L 54.6984033577677,-16.91272757265447 L 53.40911282233955,-14.203903120008011 A 34.42647223855655 34.42647223855655 0 0 0 46.97372553652674,-16.51484328146509"/><text text-anchor="middle" pointer-events="none" font-size="8px" fill="#000000" x="37.26788772924217" y="-14.018574935133493" font-family="sans-serif">trek</text></g><g class="relationship" transform="translate(110.75206918690577 -45.807723853919946) rotate(494.8835930908974)"><path class="outline" fill="#A5ABB6" stroke="none" d="M 24.018736134675446,6.953439040707552 L 24.277555179777966,5.987513214418485 A 174.88947820108154 174.88947820108154 0 0 0 44.332899027365144,10.120291596825183 L 44.188754370075294,11.109848223691387 A 175.88947820108154 175.88947820108154 0 0 1 24.018736134675446,6.953439040707552 Z M 90.64646223279199,11.676040437538148 L 90.5264767764567,10.683264788024132 A 174.88947820108154 174.88947820108154 0 0 0 110.67658343341108,7.040480726842739 L 109.97097836905398,4.124640969045062 L 117.5978103789985,5.880042202975794 L 111.6173901858872,10.928267070572975 L 110.9117851215301,8.012427312775298 A 175.88947820108154 175.88947820108154 0 0 1 90.64646223279199,11.676040437538148"/><text text-anchor="middle" pointer-events="none" font-size="8px" fill="#000000" x="67.40492429305105" y="15.433703884624094" transform="rotate(180 67.40492429305105 12.433703884624094)" font-family="sans-serif">twowheeler</text></g><g class="relationship" transform="translate(10.620167356171361 54.73187959137354) rotate(427.69352250738274)"><path class="outline" fill="#A5ABB6" stroke="none" d="M 24.018736134675446,6.953439040707552 L 24.277555179777966,5.987513214418485 A 115.95736631480764 115.95736631480764 0 0 0 29.58098294780021,7.275598751365237 L 29.36789991703268,8.252632845959127 A 116.95736631480764 116.95736631480764 0 0 1 24.018736134675446,6.953439040707552 Z M 75.7179512172932,8.958897462987224 L 75.53473555597576,7.97582471824856 A 115.95736631480764 115.95736631480764 0 0 0 80.87494675309689,6.849922941332745 L 80.18714008079955,3.9298335622994154 L 87.80312308289089,5.7317222691445044 L 81.79202231616001,10.74337544671052 L 81.10421564386267,7.823286067677189 A 116.95736631480764 116.95736631480764 0 0 1 75.7179512172932,8.958897462987224"/><text text-anchor="middle" pointer-events="none" font-size="8px" fill="#000000" x="52.5152025094767" y="13.42514717500319" font-family="sans-serif">twowheeler</text></g><g class="relationship" transform="translate(53.183048164327346 158.4774967498242) rotate(376.8449409682346)"><path class="outline" fill="#A5ABB6" stroke="none" d="M 24.018736134675446,-6.953439040707552 L 24.277555179777966,-5.987513214418485 A 114.76705566536312 114.76705566536312 0 0 1 29.28697830481343,-7.209861206199079 L 29.071807875561454,-8.1864377195228 A 115.76705566536312 115.76705566536312 0 0 0 24.018736134675446,-6.953439040707552 Z M 75.41745164338077,-8.896199560295784 L 75.23228673110185,-7.913492098606028 A 114.76705566536312 114.76705566536312 0 0 1 80.27679123401992,-6.845115302391587 L 79.58943362572569,-3.9249201859104916 L 87.20513944052485,-5.727980069118571 L 81.1932680450789,-10.738708791033048 L 80.50591043678466,-7.8185136745519515 A 115.76705566536312 115.76705566536312 0 0 0 75.41745164338077,-8.896199560295784"/><text text-anchor="middle" pointer-events="none" font-size="8px" fill="#000000" x="52.21640090439821" y="-7.38459110966771" font-family="sans-serif">twowheeler</text></g><g class="relationship" transform="translate(110.75206918690577 -45.807723853919946) rotate(415.546358192909)"><path class="outline" fill="#A5ABB6" stroke="none" d="M 25 0.5 L 56.01918040629495 0.5 L 56.01918040629495 -0.5 L 25 -0.5 Z M 75.35511790629495 0.5 L 106.3742983125899 0.5 L 106.3742983125899 3.5 L 113.3742983125899 0 L 106.3742983125899 -3.5 L 106.3742983125899 -0.5 L 75.35511790629495 -0.5 Z"/><text text-anchor="middle" pointer-events="none" font-size="8px" fill="#000000" x="65.68714915629495" y="3" font-family="sans-serif">trek</text></g><g class="relationship" transform="translate(110.75206918690577 -45.807723853919946) rotate(410.70692696697085)"><path class="outline" fill="#A5ABB6" stroke="none" d="M 25 0.5 L 25.449019886640684 0.5 L 25.449019886640684 -0.5 L 25 -0.5 Z M 44.784957386640684 0.5 L 45.23397727328137 0.5 L 45.23397727328137 3.5 L 52.23397727328137 0 L 45.23397727328137 -3.5 L 45.23397727328137 -0.5 L 44.784957386640684 -0.5 Z"/><text text-anchor="middle" pointer-events="none" font-size="8px" fill="#000000" x="35.116988636640684" y="3" font-family="sans-serif">trek</text></g><g class="relationship" transform="translate(10.620167356171361 54.73187959137354) rotate(476.6740604030994)"><path class="outline" fill="#A5ABB6" stroke="none" d="M 24.018736134675446,-6.953439040707552 L 24.277555179777966,-5.987513214418485 A 144.9640484952938 144.9640484952938 0 0 1 50.207517906131045,-10.463025988924045 L 50.127570539872366,-11.459825075314228 A 145.9640484952938 145.9640484952938 0 0 0 24.018736134675446,-6.953439040707552 Z M 69.51390465252004,-11.722910564505412 L 69.461036203429,-10.724309078881276 A 144.9640484952938 144.9640484952938 0 0 1 95.50289903114816,-6.9540886546778005 L 94.80536289866252,-4.0363081036635595 L 102.42730967226234,-5.8128011040470104 L 96.43294720779569,-10.84446272269679 L 95.73541107531005,-7.926682171682549 A 145.9640484952938 145.9640484952938 0 0 0 69.51390465252004,-11.722910564505412"/><text text-anchor="middle" pointer-events="none" font-size="8px" fill="#000000" x="59.823149336282384" y="-8.413650686033264" transform="rotate(180 59.823149336282384 -11.413650686033264)" font-family="sans-serif">trek</text></g><g class="relationship" transform="translate(-46.27621986921576 167.98545833524864) rotate(354.53931606861056)"><path class="outline" fill="#A5ABB6" stroke="none" d="M 21.40063509461097,12.933012701892217 L 21.90063509461097,12.06698729810778 A 52.11794198789052 52.11794198789052 0 0 0 24.14515306203902,13.290469708710098 L 23.688219190167214,14.179970375790369 A 53.11794198789052 53.11794198789052 0 0 1 21.40063509461097,12.933012701892217 Z M 69.06058248351869,15.678469614086666 L 68.66333485672297,14.76075815452807 A 52.11794198789052 52.11794198789052 0 0 0 70.98368879513286,13.688038379532646 L 69.65838227908166,10.996651629451524 L 77.48447563133068,11.04422096709336 L 72.7507641498678,17.276554046307474 L 71.4254576338166,14.585167296226352 A 53.11794198789052 53.11794198789052 0 0 1 69.06058248351869,15.678469614086666"/><text text-anchor="middle" pointer-events="none" font-size="8px" fill="#000000" x="46.22275631437899" y="22.520794143821156" font-family="sans-serif">twowheeler</text></g><g class="relationship" transform="translate(10.620167356171361 54.73187959137354) rotate(476.6740604030994)"><path class="outline" fill="#A5ABB6" stroke="none" d="M 24.018736134675446,6.953439040707552 L 24.277555179777966,5.987513214418485 A 144.9640484952938 144.9640484952938 0 0 0 36.80282996686252,8.756083767537177 L 36.63041354997779,9.741107919113489 A 145.9640484952938 145.9640484952938 0 0 1 24.018736134675446,6.953439040707552 Z M 83.05273089158798,10.37108974013438 L 82.9071079157581,9.381749581791212 A 144.9640484952938 144.9640484952938 0 0 0 95.50289903114816,6.9540886546778005 L 94.80536289866252,4.0363081036635595 L 102.42730967226234,5.8128011040470104 L 96.43294720779569,10.84446272269679 L 95.73541107531005,7.926682171682549 A 145.9640484952938 145.9640484952938 0 0 1 83.05273089158798,10.37108974013438"/><text text-anchor="middle" pointer-events="none" font-size="8px" fill="#000000" x="59.82314933628236" y="14.413650686033264" transform="rotate(180 59.82314933628236 11.413650686033264)" font-family="sans-serif">twowheeler</text></g><g class="relationship" transform="translate(-46.27621986921576 167.98545833524864) rotate(354.53931606861056)"><path class="outline" fill="#A5ABB6" stroke="none" d="M 25 0.5 L 35.45048989933668 0.5 L 35.45048989933668 -0.5 L 25 -0.5 Z M 57.46220864933668 0.5 L 67.91269854867336 0.5 L 67.91269854867336 3.5 L 74.91269854867336 0 L 67.91269854867336 -3.5 L 67.91269854867336 -0.5 L 57.46220864933668 -0.5 Z"/><text text-anchor="middle" pointer-events="none" font-size="8px" fill="#000000" x="46.45634927433668" y="3" font-family="sans-serif">road</text></g><g class="relationship" transform="translate(-46.27621986921576 167.98545833524864) rotate(354.53931606861056)"><path class="outline" fill="#A5ABB6" stroke="none" d="M 21.40063509461097,-12.933012701892217 L 21.90063509461097,-12.06698729810778 A 52.11794198789052 52.11794198789052 0 0 1 36.751098990650334,-17.829946400169455 L 36.536038559052514,-18.806547142930256 A 53.11794198789052 53.11794198789052 0 0 0 21.40063509461097,-12.933012701892217 Z M 55.935492307251224,-19.447246999737146 L 55.7853380294271,-18.45858442188203 A 52.11794198789052 52.11794198789052 0 0 1 70.98368879513286,-13.688038379532646 L 69.65838227908166,-10.996651629451524 L 77.48447563133068,-11.04422096709336 L 72.7507641498678,-17.276554046307474 L 71.4254576338166,-14.585167296226352 A 53.11794198789052 53.11794198789052 0 0 0 55.935492307251224,-19.447246999737146"/><text text-anchor="middle" pointer-events="none" font-size="8px" fill="#000000" x="46.222756314378984" y="-16.520794143821156" font-family="sans-serif">trek</text></g><g class="relationship" transform="translate(-46.27621986921576 167.98545833524864) rotate(400.11240315886005)"><path class="outline" fill="#A5ABB6" stroke="none" d="M 25 0.5 L 50.156637881648344 0.5 L 50.156637881648344 -0.5 L 25 -0.5 Z M 69.49257538164835 0.5 L 94.64921326329669 0.5 L 94.64921326329669 3.5 L 101.64921326329669 0 L 94.64921326329669 -3.5 L 94.64921326329669 -0.5 L 69.49257538164835 -0.5 Z"/><text text-anchor="middle" pointer-events="none" font-size="8px" fill="#000000" x="59.824606631648344" y="3" font-family="sans-serif">trek</text></g><g class="relationship" transform="translate(50.58281187365783 249.58417885245413) rotate(331.7394104843386)"><path class="outline" fill="#A5ABB6" stroke="none" d="M 25 0.5 L 48.90856685067365 0.5 L 48.90856685067365 -0.5 L 25 -0.5 Z M 68.24450435067365 0.5 L 92.1530712013473 0.5 L 92.1530712013473 3.5 L 99.1530712013473 0 L 92.1530712013473 -3.5 L 92.1530712013473 -0.5 L 68.24450435067365 -0.5 Z"/><text text-anchor="middle" pointer-events="none" font-size="8px" fill="#000000" x="58.57653560067365" y="3" font-family="sans-serif">trek</text></g></g><g class="layer nodes"><g class="node" transform="translate(28.72018792138817,-48.85223815567267)"><circle class="outline" cx="0" cy="0" r="25" fill="#8DCC93" stroke="#5db665" stroke-width="2px"/><text text-anchor="middle" pointer-events="none" font-family="sans-serif" dy="1.5625" font-size="25" fill="#2A2C34"/><text text-anchor="middle" pointer-events="none" x="0" y="5" font-size="10px" fill="#2A2C34" font-family="sans-serif"> Darjeeling</text></g><g class="node" transform="translate(159.93723965514846,190.79987641286095)"><circle class="outline" cx="0" cy="0" r="25" fill="#D9C8AE" stroke="#c0a378" stroke-width="2px"/><text text-anchor="middle" pointer-events="none" font-family="sans-serif" dy="1.5625" font-size="25" fill="#2A2C34"/><text text-anchor="middle" pointer-events="none" x="0" y="5" font-size="10px" fill="#2A2C34" font-family="sans-serif"> Sandak…</text></g><g class="node" transform="translate(159.66336704709516,13.964947050780097)"><circle class="outline" cx="0" cy="0" r="25" fill="#F16667" stroke="#eb2728" stroke-width="2px"/><text text-anchor="middle" pointer-events="none" font-family="sans-serif" dy="1.5625" font-size="25" fill="#FFFFFF"/><text text-anchor="middle" pointer-events="none" x="0" y="5" font-size="10px" fill="#FFFFFF" font-family="sans-serif"> Tumbling</text></g><g class="node" transform="translate(283.3338001945786,54.4884818102437)"><circle class="outline" cx="0" cy="0" r="25" fill="#F16667" stroke="#eb2728" stroke-width="2px"/><text text-anchor="middle" pointer-events="none" font-family="sans-serif" dy="1.5625" font-size="25" fill="#FFFFFF"/><text text-anchor="middle" pointer-events="none" x="0" y="5" font-size="10px" fill="#FFFFFF" font-family="sans-serif"> Gairibus</text></g><g class="node" transform="translate(189.03584073207614,68.29353620119598)"><circle class="outline" cx="0" cy="0" r="25" fill="#F16667" stroke="#eb2728" stroke-width="2px"/><text text-anchor="middle" pointer-events="none" font-family="sans-serif" dy="1.5625" font-size="25" fill="#FFFFFF"/><text text-anchor="middle" pointer-events="none" x="0" y="5" font-size="10px" fill="#FFFFFF" font-family="sans-serif"> BhikeBh…</text></g><g class="node" transform="translate(110.75206918690577,-45.807723853919946)"><circle class="outline" cx="0" cy="0" r="25" fill="#8DCC93" stroke="#5db665" stroke-width="2px"/><text text-anchor="middle" pointer-events="none" font-family="sans-serif" dy="1.5625" font-size="25" fill="#2A2C34"/><text text-anchor="middle" pointer-events="none" x="0" y="5" font-size="10px" fill="#2A2C34" font-family="sans-serif"> Rimbik</text></g><g class="node" transform="translate(10.620167356171361,54.73187959137354)"><circle class="outline" cx="0" cy="0" r="25" fill="#F16667" stroke="#eb2728" stroke-width="2px"/><text text-anchor="middle" pointer-events="none" font-family="sans-serif" dy="1.5625" font-size="25" fill="#FFFFFF"/><text text-anchor="middle" pointer-events="none" x="0" y="5" font-size="10px" fill="#FFFFFF" font-family="sans-serif"> Sirikhola</text></g><g class="node" transform="translate(53.183048164327346,158.4774967498242)"><circle class="outline" cx="0" cy="0" r="25" fill="#F16667" stroke="#eb2728" stroke-width="2px"/><text text-anchor="middle" pointer-events="none" font-family="sans-serif" dy="1.5625" font-size="25" fill="#FFFFFF"/><text text-anchor="middle" pointer-events="none" x="0" y="5" font-size="10px" fill="#FFFFFF" font-family="sans-serif"> Gurdum</text></g><g class="node" transform="translate(-46.27621986921576,167.98545833524864)"><circle class="outline" cx="0" cy="0" r="25" fill="#F16667" stroke="#eb2728" stroke-width="2px"/><text text-anchor="middle" pointer-events="none" font-family="sans-serif" dy="1.5625" font-size="25" fill="#FFFFFF"/><text text-anchor="middle" pointer-events="none" x="0" y="5" font-size="10px" fill="#FFFFFF" font-family="sans-serif"> Rammam</text></g><g class="node" transform="translate(50.58281187365783,249.58417885245413)"><circle class="outline" cx="0" cy="0" r="25" fill="#D9C8AE" stroke="#c0a378" stroke-width="2px"/><text text-anchor="middle" pointer-events="none" font-family="sans-serif" dy="1.5625" font-size="25" fill="#2A2C34"/><text text-anchor="middle" pointer-events="none" x="0" y="5" font-size="10px" fill="#2A2C34" font-family="sans-serif"> Sabargr…</text></g></g></svg>