<svg xmlns="http://www.w3.org/2000/svg" width="363.5058288574219" height="452.4720764160156" viewBox="-83.15634155273438 -101.30277252197266 363.5058288574219 452.4720764160156"><title>Neo4j Graph Visualization</title><desc>Created using Neo4j (http://www.neo4j.com/)</desc><g class="layer relationships"><g class="relationship" transform="translate(154.1087223417125 217.9702027017055) rotate(501.6568783470742)"><path class="outline" fill="#A5ABB6" stroke="none" d="M 25 0.5 L 33.106826436400276 0.5 L 33.106826436400276 -0.5 L 25 -0.5 Z M 78.66932643640027 0.5 L 86.77615287280055 0.5 L 86.77615287280055 3.5 L 93.77615287280055 0 L 86.77615287280055 -3.5 L 86.77615287280055 -0.5 L 78.66932643640027 -0.5 Z"/><text text-anchor="middle" pointer-events="none" font-size="8px" fill="#000000" x="55.888076436400276" y="3" transform="rotate(180 55.888076436400276 0)" font-family="sans-serif">ACTED_IN</text></g><g class="relationship" transform="translate(154.1087223417125 217.9702027017055) rotate(427.77818015015623)"><path class="outline" fill="#A5ABB6" stroke="none" d="M 25 0.5 L 29.998389935256576 0.5 L 29.998389935256576 -0.5 L 25 -0.5 Z M 75.56088993525657 0.5 L 80.55927987051315 0.5 L 80.55927987051315 3.5 L 87.55927987051315 0 L 80.55927987051315 -3.5 L 80.55927987051315 -0.5 L 75.56088993525657 -0.5 Z"/><text text-anchor="middle" pointer-events="none" font-size="8px" fill="#000000" x="52.779639935256576" y="3" font-family="sans-serif">ACTED_IN</text></g><g class="relationship" transform="translate(154.1087223417125 217.9702027017055) rotate(255.53274936157396)"><path class="outline" fill="#A5ABB6" stroke="none" d="M 25 0.5 L 26.220464399084996 0.5 L 26.220464399084996 -0.5 L 25 -0.5 Z M 61.556401899084996 0.5 L 62.77686629816999 0.5 L 62.77686629816999 3.5 L 69.77686629816999 0 L 62.77686629816999 -3.5 L 62.77686629816999 -0.5 L 61.556401899084996 -0.5 Z"/><text text-anchor="middle" pointer-events="none" font-size="8px" fill="#000000" x="43.888433149084996" y="3" transform="rotate(180 43.888433149084996 0)" font-family="sans-serif">ACTE…</text></g><g class="relationship" transform="translate(154.1087223417125 217.9702027017055) rotate(276.61478516409267)"><path class="outline" fill="#A5ABB6" stroke="none" d="M 25 0.5 L 42.4968721171831 0.5 L 42.4968721171831 -0.5 L 25 -0.5 Z M 88.0593721171831 0.5 L 105.5562442343662 0.5 L 105.5562442343662 3.5 L 112.5562442343662 0 L 105.5562442343662 -3.5 L 105.5562442343662 -0.5 L 88.0593721171831 -0.5 Z"/><text text-anchor="middle" pointer-events="none" font-size="8px" fill="#000000" x="65.2781221171831" y="3" font-family="sans-serif">ACTED_IN</text></g><g class="relationship" transform="translate(251.34945323872512 148.7372717996265) rotate(190.55848665329592)"><path class="outline" fill="#A5ABB6" stroke="none" d="M 25 0.5 L 35.21931049147437 0.5 L 35.21931049147437 -0.5 L 25 -0.5 Z M 80.78181049147437 0.5 L 91.00112098294873 0.5 L 91.00112098294873 3.5 L 98.00112098294873 0 L 91.00112098294873 -3.5 L 91.00112098294873 -0.5 L 80.78181049147437 -0.5 Z"/><text text-anchor="middle" pointer-events="none" font-size="8px" fill="#000000" x="58.00056049147437" y="3" transform="rotate(180 58.00056049147437 0)" font-family="sans-serif">ACTED_IN</text></g><g class="relationship" transform="translate(251.34945323872512 148.7372717996265) rotate(219.6299468444294)"><path class="outline" fill="#A5ABB6" stroke="none" d="M 25 0.5 L 26.560391082261276 0.5 L 26.560391082261276 -0.5 L 25 -0.5 Z M 72.12289108226128 0.5 L 73.68328216452255 0.5 L 73.68328216452255 3.5 L 80.68328216452255 0 L 73.68328216452255 -3.5 L 73.68328216452255 -0.5 L 72.12289108226128 -0.5 Z"/><text text-anchor="middle" pointer-events="none" font-size="8px" fill="#000000" x="49.341641082261276" y="3" transform="rotate(180 49.341641082261276 0)" font-family="sans-serif">ACTED_IN</text></g><g class="relationship" transform="translate(250.6535138487062 46.76186986908568) rotate(506.54535906936167)"><path class="outline" fill="#A5ABB6" stroke="none" d="M 25 0.5 L 45.76677156507864 0.5 L 45.76677156507864 -0.5 L 25 -0.5 Z M 91.32927156507864 0.5 L 112.09604313015728 0.5 L 112.09604313015728 3.5 L 119.09604313015728 0 L 112.09604313015728 -3.5 L 112.09604313015728 -0.5 L 91.32927156507864 -0.5 Z"/><text text-anchor="middle" pointer-events="none" font-size="8px" fill="#000000" x="68.54802156507864" y="3" transform="rotate(180 68.54802156507864 0)" font-family="sans-serif">ACTED_IN</text></g><g class="relationship" transform="translate(250.6535138487062 46.76186986908568) rotate(516.8119578405954)"><path class="outline" fill="#A5ABB6" stroke="none" d="M 25 0.5 L 25.39559869046002 0.5 L 25.39559869046002 -0.5 L 25 -0.5 Z M 55.39559869046002 0.5 L 55.79119738092004 0.5 L 55.79119738092004 3.5 L 62.79119738092004 0 L 55.79119738092004 -3.5 L 55.79119738092004 -0.5 L 55.39559869046002 -0.5 Z"/><text text-anchor="middle" pointer-events="none" font-size="8px" fill="#000000" x="40.39559869046002" y="3" transform="rotate(180 40.39559869046002 0)" font-family="sans-serif">ACT…</text></g><g class="relationship" transform="translate(61.31478584274809 37.031816381260846) rotate(245.75546422040236)"><path class="outline" fill="#A5ABB6" stroke="none" d="M 25 0.5 L 33.00523308659761 0.5 L 33.00523308659761 -0.5 L 25 -0.5 Z M 78.56773308659761 0.5 L 86.57296617319523 0.5 L 86.57296617319523 3.5 L 93.57296617319523 0 L 86.57296617319523 -3.5 L 86.57296617319523 -0.5 L 78.56773308659761 -0.5 Z"/><text text-anchor="middle" pointer-events="none" font-size="8px" fill="#000000" x="55.78648308659761" y="3" transform="rotate(180 55.78648308659761 0)" font-family="sans-serif">ACTED_IN</text></g><g class="relationship" transform="translate(61.31478584274809 37.031816381260846) rotate(294.97312516873706)"><path class="outline" fill="#A5ABB6" stroke="none" d="M 25 0.5 L 34.02425235694354 0.5 L 34.02425235694354 -0.5 L 25 -0.5 Z M 79.58675235694355 0.5 L 88.61100471388708 0.5 L 88.61100471388708 3.5 L 95.61100471388708 0 L 88.61100471388708 -3.5 L 88.61100471388708 -0.5 L 79.58675235694355 -0.5 Z"/><text text-anchor="middle" pointer-events="none" font-size="8px" fill="#000000" x="56.80550235694354" y="3" font-family="sans-serif">ACTED_IN</text></g><g class="relationship" transform="translate(61.31478584274809 37.031816381260846) rotate(195.3830589898526)"><path class="outline" fill="#A5ABB6" stroke="none" d="M 25 0.5 L 33.599611586541734 0.5 L 33.599611586541734 -0.5 L 25 -0.5 Z M 79.16211158654173 0.5 L 87.76172317308347 0.5 L 87.76172317308347 3.5 L 94.76172317308347 0 L 87.76172317308347 -3.5 L 87.76172317308347 -0.5 L 79.16211158654173 -0.5 Z"/><text text-anchor="middle" pointer-events="none" font-size="8px" fill="#000000" x="56.380861586541734" y="3" transform="rotate(180 56.380861586541734 0)" font-family="sans-serif">ACTED_IN</text></g><g class="relationship" transform="translate(61.31478584274809 37.031816381260846) rotate(508.60181495930476)"><path class="outline" fill="#A5ABB6" stroke="none" d="M 25 0.5 L 34.69073081185588 0.5 L 34.69073081185588 -0.5 L 25 -0.5 Z M 80.25323081185587 0.5 L 89.94396162371176 0.5 L 89.94396162371176 3.5 L 96.94396162371176 0 L 89.94396162371176 -3.5 L 89.94396162371176 -0.5 L 80.25323081185587 -0.5 Z"/><text text-anchor="middle" pointer-events="none" font-size="8px" fill="#000000" x="57.47198081185588" y="3" transform="rotate(180 57.47198081185588 0)" font-family="sans-serif">ACTED_IN</text></g><g class="relationship" transform="translate(61.31478584274809 37.031816381260846) rotate(412.2195563631101)"><path class="outline" fill="#A5ABB6" stroke="none" d="M 25 0.5 L 30.127454936076873 0.5 L 30.127454936076873 -0.5 L 25 -0.5 Z M 75.68995493607687 0.5 L 80.81740987215375 0.5 L 80.81740987215375 3.5 L 87.81740987215375 0 L 80.81740987215375 -3.5 L 80.81740987215375 -0.5 L 75.68995493607687 -0.5 Z"/><text text-anchor="middle" pointer-events="none" font-size="8px" fill="#000000" x="52.90870493607687" y="3" font-family="sans-serif">ACTED_IN</text></g><g class="relationship" transform="translate(61.31478584274809 37.031816381260846) rotate(382.1832147171633)"><path class="outline" fill="#A5ABB6" stroke="none" d="M 25 0.5 L 32.38058650681333 0.5 L 32.38058650681333 -0.5 L 25 -0.5 Z M 77.94308650681333 0.5 L 85.32367301362666 0.5 L 85.32367301362666 3.5 L 92.32367301362666 0 L 85.32367301362666 -3.5 L 85.32367301362666 -0.5 L 77.94308650681333 -0.5 Z"/><text text-anchor="middle" pointer-events="none" font-size="8px" fill="#000000" x="55.16183650681333" y="3" font-family="sans-serif">ACTED_IN</text></g></g><g class="layer nodes"><g class="node" transform="translate(60.95143429512364,291.6553041474371)"><circle class="outline" cx="0" cy="0" r="25" fill="#57C7E3" stroke="#23b3d7" stroke-width="2px"/><text text-anchor="middle" pointer-events="none" font-family="sans-serif" dy="1.5625" font-size="25" fill="#2A2C34"/><text text-anchor="middle" pointer-events="none" font-family="sans-serif" dy="1.5625" font-size="25" fill="#2A2C34"/><text text-anchor="middle" pointer-events="none" x="0" y="0" font-size="10px" fill="#2A2C34" font-family="sans-serif"> Cloud</text><text text-anchor="middle" pointer-events="none" x="0" y="10" font-size="10px" fill="#2A2C34" font-family="sans-serif"> Atlas</text></g><g class="node" transform="translate(154.1087223417125,217.9702027017055)"><circle class="outline" cx="0" cy="0" r="25" fill="#F79767" stroke="#f36924" stroke-width="2px"/><text text-anchor="middle" pointer-events="none" font-family="sans-serif" dy="1.5625" font-size="25" fill="#FFFFFF"/><text text-anchor="middle" pointer-events="none" font-family="sans-serif" dy="1.5625" font-size="25" fill="#FFFFFF"/><text text-anchor="middle" pointer-events="none" x="0" y="0" font-size="10px" fill="#FFFFFF" font-family="sans-serif"> Hugo</text><text text-anchor="middle" pointer-events="none" x="0" y="10" font-size="10px" fill="#FFFFFF" font-family="sans-serif"> Weaving</text></g><g class="node" transform="translate(196.67789426413827,322.1693249955495)"><circle class="outline" cx="0" cy="0" r="25" fill="#57C7E3" stroke="#23b3d7" stroke-width="2px"/><text text-anchor="middle" pointer-events="none" font-family="sans-serif" dy="1.5625" font-size="25" fill="#2A2C34"/><text text-anchor="middle" pointer-events="none" font-family="sans-serif" dy="1.5625" font-size="25" fill="#2A2C34"/><text text-anchor="middle" pointer-events="none" x="0" y="0" font-size="10px" fill="#2A2C34" font-family="sans-serif"> V for</text><text text-anchor="middle" pointer-events="none" x="0" y="10" font-size="10px" fill="#2A2C34" font-family="sans-serif"> Vendetta</text></g><g class="node" transform="translate(130.43094146885082,126.198654397027)"><circle class="outline" cx="0" cy="0" r="25" fill="#57C7E3" stroke="#23b3d7" stroke-width="2px"/><text text-anchor="middle" pointer-events="none" font-family="sans-serif" dy="1.5625" font-size="25" fill="#2A2C34"/><text text-anchor="middle" pointer-events="none" font-family="sans-serif" dy="1.5625" font-size="25" fill="#2A2C34"/><text text-anchor="middle" pointer-events="none" font-family="sans-serif" dy="1.5625" font-size="25" fill="#2A2C34"/><text text-anchor="middle" pointer-events="none" x="0" y="-5" font-size="10px" fill="#2A2C34" font-family="sans-serif"> The</text><text text-anchor="middle" pointer-events="none" x="0" y="5" font-size="10px" fill="#2A2C34" font-family="sans-serif"> Matrix</text><text text-anchor="middle" pointer-events="none" x="0" y="15" font-size="10px" fill="#2A2C34" font-family="sans-serif"> Revol…</text></g><g class="node" transform="translate(251.34945323872512,148.7372717996265)"><circle class="outline" cx="0" cy="0" r="25" fill="#F79767" stroke="#f36924" stroke-width="2px"/><text text-anchor="middle" pointer-events="none" font-family="sans-serif" dy="1.5625" font-size="25" fill="#FFFFFF"/><text text-anchor="middle" pointer-events="none" font-family="sans-serif" dy="1.5625" font-size="25" fill="#FFFFFF"/><text text-anchor="middle" pointer-events="none" x="0" y="0" font-size="10px" fill="#FFFFFF" font-family="sans-serif"> Laurence</text><text text-anchor="middle" pointer-events="none" x="0" y="10" font-size="10px" fill="#FFFFFF" font-family="sans-serif"> Fishbur…</text></g><g class="node" transform="translate(250.6535138487062,46.76186986908568)"><circle class="outline" cx="0" cy="0" r="25" fill="#F79767" stroke="#f36924" stroke-width="2px"/><text text-anchor="middle" pointer-events="none" font-family="sans-serif" dy="1.5625" font-size="25" fill="#FFFFFF"/><text text-anchor="middle" pointer-events="none" x="0" y="5" font-size="10px" fill="#FFFFFF" font-family="sans-serif"> Carrie-A…</text></g><g class="node" transform="translate(61.31478584274809,37.031816381260846)"><circle class="outline" cx="0" cy="0" r="25" fill="#F79767" stroke="#f36924" stroke-width="2px"/><text text-anchor="middle" pointer-events="none" font-family="sans-serif" dy="1.5625" font-size="25" fill="#FFFFFF"/><text text-anchor="middle" pointer-events="none" font-family="sans-serif" dy="1.5625" font-size="25" fill="#FFFFFF"/><text text-anchor="middle" pointer-events="none" x="0" y="0" font-size="10px" fill="#FFFFFF" font-family="sans-serif"> Keanu</text><text text-anchor="middle" pointer-events="none" x="0" y="10" font-size="10px" fill="#FFFFFF" font-family="sans-serif"> Reeves</text></g><g class="node" transform="translate(169.95430567748605,81.32966034105155)"><circle class="outline" cx="0" cy="0" r="25" fill="#57C7E3" stroke="#23b3d7" stroke-width="2px"/><text text-anchor="middle" pointer-events="none" font-family="sans-serif" dy="1.5625" font-size="25" fill="#2A2C34"/><text text-anchor="middle" pointer-events="none" font-family="sans-serif" dy="1.5625" font-size="25" fill="#2A2C34"/><text text-anchor="middle" pointer-events="none" font-family="sans-serif" dy="1.5625" font-size="25" fill="#2A2C34"/><text text-anchor="middle" pointer-events="none" x="0" y="-5" font-size="10px" fill="#2A2C34" font-family="sans-serif"> The</text><text text-anchor="middle" pointer-events="none" x="0" y="5" font-size="10px" fill="#2A2C34" font-family="sans-serif"> Matrix</text><text text-anchor="middle" pointer-events="none" x="0" y="15" font-size="10px" fill="#2A2C34" font-family="sans-serif"> Reloa…</text></g><g class="node" transform="translate(12.624943781390584,-71.08315754534085)"><circle class="outline" cx="0" cy="0" r="25" fill="#57C7E3" stroke="#23b3d7" stroke-width="2px"/><text text-anchor="middle" pointer-events="none" font-family="sans-serif" dy="1.5625" font-size="25" fill="#2A2C34"/><text text-anchor="middle" pointer-events="none" x="0" y="5" font-size="10px" fill="#2A2C34" font-family="sans-serif"> Somethi…</text></g><g class="node" transform="translate(112.23592074679321,-72.30277319668257)"><circle class="outline" cx="0" cy="0" r="25" fill="#57C7E3" stroke="#23b3d7" stroke-width="2px"/><text text-anchor="middle" pointer-events="none" font-family="sans-serif" dy="1.5625" font-size="25" fill="#2A2C34"/><text text-anchor="middle" pointer-events="none" font-family="sans-serif" dy="1.5625" font-size="25" fill="#2A2C34"/><text text-anchor="middle" pointer-events="none" x="0" y="0" font-size="10px" fill="#2A2C34" font-family="sans-serif"> The</text><text text-anchor="middle" pointer-events="none" x="0" y="10" font-size="10px" fill="#2A2C34" font-family="sans-serif"> Replac…</text></g><g class="node" transform="translate(-54.15633955656607,5.262498849999018)"><circle class="outline" cx="0" cy="0" r="25" fill="#57C7E3" stroke="#23b3d7" stroke-width="2px"/><text text-anchor="middle" pointer-events="none" font-family="sans-serif" dy="1.5625" font-size="25" fill="#2A2C34"/><text text-anchor="middle" pointer-events="none" font-family="sans-serif" dy="1.5625" font-size="25" fill="#2A2C34"/><text text-anchor="middle" pointer-events="none" x="0" y="0" font-size="10px" fill="#2A2C34" font-family="sans-serif"> Johnny</text><text text-anchor="middle" pointer-events="none" x="0" y="10" font-size="10px" fill="#2A2C34" font-family="sans-serif"> Mnemo…</text></g><g class="node" transform="translate(-42.77259233869467,100.5624977863788)"><circle class="outline" cx="0" cy="0" r="25" fill="#57C7E3" stroke="#23b3d7" stroke-width="2px"/><text text-anchor="middle" pointer-events="none" font-family="sans-serif" dy="1.5625" font-size="25" fill="#2A2C34"/><text text-anchor="middle" pointer-events="none" font-family="sans-serif" dy="1.5625" font-size="25" fill="#2A2C34"/><text text-anchor="middle" pointer-events="none" font-family="sans-serif" dy="1.5625" font-size="25" fill="#2A2C34"/><text text-anchor="middle" pointer-events="none" x="0" y="-5" font-size="10px" fill="#2A2C34" font-family="sans-serif"> The</text><text text-anchor="middle" pointer-events="none" x="0" y="5" font-size="10px" fill="#2A2C34" font-family="sans-serif"> Devil's</text><text text-anchor="middle" pointer-events="none" x="0" y="15" font-size="10px" fill="#2A2C34" font-family="sans-serif"> Advoc…</text></g></g></svg>