<svg xmlns="http://www.w3.org/2000/svg" width="237.99034118652344" height="246.68594360351562" viewBox="-10.009994506835938 -11.683773040771484 237.99034118652344 246.68594360351562"><title>Neo4j Graph Visualization</title><desc>Created using Neo4j (http://www.neo4j.com/)</desc><g class="layer relationships"><g class="relationship" transform="translate(124.9755914800979 126.23174214201372) rotate(407.70193730454264)"><path class="outline" fill="#A5ABB6" stroke="none" d="M 25 0.5 L 27.642900757576513 0.5 L 27.642900757576513 -0.5 L 25 -0.5 Z M 73.20540075757651 0.5 L 75.84830151515303 0.5 L 75.84830151515303 3.5 L 82.84830151515303 0 L 75.84830151515303 -3.5 L 75.84830151515303 -0.5 L 73.20540075757651 -0.5 Z"/><text text-anchor="middle" pointer-events="none" font-size="8px" fill="#000000" x="50.42415075757651" y="3" font-family="sans-serif">ACTED_IN</text></g><g class="relationship" transform="translate(124.9755914800979 126.23174214201372) rotate(310.9405506065094)"><path class="outline" fill="#A5ABB6" stroke="none" d="M 25 0.5 L 30.187159446183905 0.5 L 30.187159446183905 -0.5 L 25 -0.5 Z M 75.7496594461839 0.5 L 80.93681889236781 0.5 L 80.93681889236781 3.5 L 87.93681889236781 0 L 80.93681889236781 -3.5 L 80.93681889236781 -0.5 L 75.7496594461839 -0.5 Z"/><text text-anchor="middle" pointer-events="none" font-size="8px" fill="#000000" x="52.968409446183905" y="3" font-family="sans-serif">ACTED_IN</text></g><g class="relationship" transform="translate(124.9755914800979 126.23174214201372) rotate(254.10801540487984)"><path class="outline" fill="#A5ABB6" stroke="none" d="M 25 0.5 L 30.34061667024939 0.5 L 30.34061667024939 -0.5 L 25 -0.5 Z M 75.90311667024939 0.5 L 81.24373334049878 0.5 L 81.24373334049878 3.5 L 88.24373334049878 0 L 81.24373334049878 -3.5 L 81.24373334049878 -0.5 L 75.90311667024939 -0.5 Z"/><text text-anchor="middle" pointer-events="none" font-size="8px" fill="#000000" x="53.12186667024939" y="3" transform="rotate(180 53.12186667024939 0)" font-family="sans-serif">ACTED_IN</text></g><g class="relationship" transform="translate(124.9755914800979 126.23174214201372) rotate(200.6405328226345)"><path class="outline" fill="#A5ABB6" stroke="none" d="M 25 0.5 L 30.346452770078045 0.5 L 30.346452770078045 -0.5 L 25 -0.5 Z M 75.90895277007805 0.5 L 81.25540554015609 0.5 L 81.25540554015609 3.5 L 88.25540554015609 0 L 81.25540554015609 -3.5 L 81.25540554015609 -0.5 L 75.90895277007805 -0.5 Z"/><text text-anchor="middle" pointer-events="none" font-size="8px" fill="#000000" x="53.127702770078045" y="3" transform="rotate(180 53.127702770078045 0)" font-family="sans-serif">ACTED_IN</text></g><g class="relationship" transform="translate(124.9755914800979 126.23174214201372) rotate(503.9320599061042)"><path class="outline" fill="#A5ABB6" stroke="none" d="M 25 0.5 L 30.21144618548398 0.5 L 30.21144618548398 -0.5 L 25 -0.5 Z M 75.77394618548398 0.5 L 80.98539237096796 0.5 L 80.98539237096796 3.5 L 87.98539237096796 0 L 80.98539237096796 -3.5 L 80.98539237096796 -0.5 L 75.77394618548398 -0.5 Z"/><text text-anchor="middle" pointer-events="none" font-size="8px" fill="#000000" x="52.99269618548398" y="3" transform="rotate(180 52.99269618548398 0)" font-family="sans-serif">ACTED_IN</text></g></g><g class="layer nodes"><g class="node" transform="translate(124.9755914800979,126.23174214201372)"><circle class="outline" cx="0" cy="0" r="25" fill="#F79767" stroke="#f36924" stroke-width="2px"/><text text-anchor="middle" pointer-events="none" font-family="sans-serif" dy="1.5625" font-size="25" fill="#FFFFFF"/><text text-anchor="middle" pointer-events="none" font-family="sans-serif" dy="1.5625" font-size="25" fill="#FFFFFF"/><text text-anchor="middle" pointer-events="none" x="0" y="0" font-size="10px" fill="#FFFFFF" font-family="sans-serif"> Hugo</text><text text-anchor="middle" pointer-events="none" x="0" y="10" font-size="10px" fill="#FFFFFF" font-family="sans-serif"> Weaving</text></g><g class="node" transform="translate(197.5561507775555,206.00215364760643)"><circle class="outline" cx="0" cy="0" r="25" fill="#57C7E3" stroke="#23b3d7" stroke-width="2px"/><text text-anchor="middle" pointer-events="none" font-family="sans-serif" dy="1.5625" font-size="25" fill="#2A2C34"/><text text-anchor="middle" pointer-events="none" font-family="sans-serif" dy="1.5625" font-size="25" fill="#2A2C34"/><text text-anchor="middle" pointer-events="none" x="0" y="0" font-size="10px" fill="#2A2C34" font-family="sans-serif"> Cloud</text><text text-anchor="middle" pointer-events="none" x="0" y="10" font-size="10px" fill="#2A2C34" font-family="sans-serif"> Atlas</text></g><g class="node" transform="translate(198.98033308772912,40.92041064897451)"><circle class="outline" cx="0" cy="0" r="25" fill="#57C7E3" stroke="#23b3d7" stroke-width="2px"/><text text-anchor="middle" pointer-events="none" font-family="sans-serif" dy="1.5625" font-size="25" fill="#2A2C34"/><text text-anchor="middle" pointer-events="none" font-family="sans-serif" dy="1.5625" font-size="25" fill="#2A2C34"/><text text-anchor="middle" pointer-events="none" x="0" y="0" font-size="10px" fill="#2A2C34" font-family="sans-serif"> V for</text><text text-anchor="middle" pointer-events="none" x="0" y="10" font-size="10px" fill="#2A2C34" font-family="sans-serif"> Vendetta</text></g><g class="node" transform="translate(93.9666632273148,17.316226674713366)"><circle class="outline" cx="0" cy="0" r="25" fill="#57C7E3" stroke="#23b3d7" stroke-width="2px"/><text text-anchor="middle" pointer-events="none" font-family="sans-serif" dy="1.5625" font-size="25" fill="#2A2C34"/><text text-anchor="middle" pointer-events="none" font-family="sans-serif" dy="1.5625" font-size="25" fill="#2A2C34"/><text text-anchor="middle" pointer-events="none" font-family="sans-serif" dy="1.5625" font-size="25" fill="#2A2C34"/><text text-anchor="middle" pointer-events="none" x="0" y="-5" font-size="10px" fill="#2A2C34" font-family="sans-serif"> The</text><text text-anchor="middle" pointer-events="none" x="0" y="5" font-size="10px" fill="#2A2C34" font-family="sans-serif"> Matrix</text><text text-anchor="middle" pointer-events="none" x="0" y="15" font-size="10px" fill="#2A2C34" font-family="sans-serif"> Revol…</text></g><g class="node" transform="translate(18.99000537230391,86.30878607094348)"><circle class="outline" cx="0" cy="0" r="25" fill="#57C7E3" stroke="#23b3d7" stroke-width="2px"/><text text-anchor="middle" pointer-events="none" font-family="sans-serif" dy="1.5625" font-size="25" fill="#2A2C34"/><text text-anchor="middle" pointer-events="none" font-family="sans-serif" dy="1.5625" font-size="25" fill="#2A2C34"/><text text-anchor="middle" pointer-events="none" font-family="sans-serif" dy="1.5625" font-size="25" fill="#2A2C34"/><text text-anchor="middle" pointer-events="none" x="0" y="-5" font-size="10px" fill="#2A2C34" font-family="sans-serif"> The</text><text text-anchor="middle" pointer-events="none" x="0" y="5" font-size="10px" fill="#2A2C34" font-family="sans-serif"> Matrix</text><text text-anchor="middle" pointer-events="none" x="0" y="15" font-size="10px" fill="#2A2C34" font-family="sans-serif"> Reloa…</text></g><g class="node" transform="translate(33.647302079387835,192.75123134902532)"><circle class="outline" cx="0" cy="0" r="25" fill="#57C7E3" stroke="#23b3d7" stroke-width="2px"/><text text-anchor="middle" pointer-events="none" font-family="sans-serif" dy="1.5625" font-size="25" fill="#2A2C34"/><text text-anchor="middle" pointer-events="none" font-family="sans-serif" dy="1.5625" font-size="25" fill="#2A2C34"/><text text-anchor="middle" pointer-events="none" x="0" y="0" font-size="10px" fill="#2A2C34" font-family="sans-serif"> The</text><text text-anchor="middle" pointer-events="none" x="0" y="10" font-size="10px" fill="#2A2C34" font-family="sans-serif"> Matrix</text></g></g></svg>