<svg xmlns="http://www.w3.org/2000/svg" width="334.17913818359375" height="356.1906433105469" viewBox="-47.32109069824219 -47.484317779541016 334.17913818359375 356.1906433105469"><title>Neo4j Graph Visualization</title><desc>Created using Neo4j (http://www.neo4j.com/)</desc><g class="layer relationships"><g class="relationship" transform="translate(194.7701921989664 279.70633439810024) rotate(217.91713705639995)"><path class="outline" fill="#A5ABB6" stroke="none" d="M 25 0.5 L 28.20638587633791 0.5 L 28.20638587633791 -0.5 L 25 -0.5 Z M 75.09701087633792 0.5 L 78.30339675267582 0.5 L 78.30339675267582 3.5 L 85.30339675267582 0 L 78.30339675267582 -3.5 L 78.30339675267582 -0.5 L 75.09701087633792 -0.5 Z"/><text text-anchor="middle" pointer-events="none" font-size="8px" fill="#000000" x="51.65169837633791" y="3" transform="rotate(180 51.65169837633791 0)" font-family="sans-serif">DIRECTED</text></g><g class="relationship" transform="translate(108.2570726087323 112.14195167697717) rotate(302.89897033626033)"><path class="outline" fill="#A5ABB6" stroke="none" d="M 24.018736134675446,6.953439040707552 L 24.277555179777966,5.987513214418485 A 80.40934862713974 80.40934862713974 0 0 0 25.409167976734015,6.281926378601781 L 25.164422081287306,7.251513634428704 A 81.40934862713974 81.40934862713974 0 0 1 24.018736134675446,6.953439040707552 Z M 62.174597785847325,7.914310940267285 L 61.96472543008963,6.936582146435001 A 80.40934862713974 80.40934862713974 0 0 0 63.106154234109844,6.6828757830303 L 62.43395149153252,3.759154956263231 L 70.0402032869959,5.601689521477717 L 64.00242455754628,10.581170218719727 L 63.33022181496896,7.657449391952658 A 81.40934862713974 81.40934862713974 0 0 1 62.174597785847325,7.914310940267285"/><text text-anchor="middle" pointer-events="none" font-size="8px" fill="#000000" x="43.64029198021833" y="12.214424029547246" font-family="sans-serif">PROD…</text></g><g class="relationship" transform="translate(108.2570726087323 112.14195167697717) rotate(302.89897033626033)"><path class="outline" fill="#A5ABB6" stroke="none" d="M 24.018736134675446,-6.953439040707552 L 24.277555179777966,-5.987513214418485 A 80.40934862713974 80.40934862713974 0 0 1 26.055368857854976,-6.44219944524346 L 25.81865935235737,-7.413779915408995 A 81.40934862713974 81.40934862713974 0 0 0 24.018736134675446,-6.953439040707552 Z M 61.51496999449493,-8.053047848391827 L 61.313200243689565,-7.07361486566154 A 80.40934862713974 80.40934862713974 0 0 1 63.106154234109844,-6.6828757830303 L 62.43395149153252,-3.759154956263231 L 70.0402032869959,-5.601689521477717 L 64.00242455754628,-10.581170218719727 L 63.33022181496896,-7.657449391952658 A 81.40934862713974 81.40934862713974 0 0 0 61.51496999449493,-8.053047848391827"/><text text-anchor="middle" pointer-events="none" font-size="8px" fill="#000000" x="43.64029198021832" y="-6.214424029547246" font-family="sans-serif">WROTE</text></g><g class="relationship" transform="translate(108.2570726087323 112.14195167697717) rotate(450.2901296734599)"><path class="outline" fill="#A5ABB6" stroke="none" d="M 25 0.5 L 26.94563138839218 0.5 L 26.94563138839218 -0.5 L 25 -0.5 Z M 65.83625638839217 0.5 L 67.78188777678436 0.5 L 67.78188777678436 3.5 L 74.78188777678436 0 L 67.78188777678436 -3.5 L 67.78188777678436 -0.5 L 65.83625638839217 -0.5 Z"/><text text-anchor="middle" pointer-events="none" font-size="8px" fill="#000000" x="46.39094388839218" y="3" transform="rotate(180 46.39094388839218 0)" font-family="sans-serif">DIREC…</text></g><g class="relationship" transform="translate(108.2570726087323 112.14195167697717) rotate(249.87861647837553)"><path class="outline" fill="#A5ABB6" stroke="none" d="M 25 0.5 L 33.05757041172684 0.5 L 33.05757041172684 -0.5 L 25 -0.5 Z M 79.94819541172684 0.5 L 88.00576582345369 0.5 L 88.00576582345369 3.5 L 95.00576582345369 0 L 88.00576582345369 -3.5 L 88.00576582345369 -0.5 L 79.94819541172684 -0.5 Z"/><text text-anchor="middle" pointer-events="none" font-size="8px" fill="#000000" x="56.50288291172684" y="3" transform="rotate(180 56.50288291172684 0)" font-family="sans-serif">DIRECTED</text></g><g class="relationship" transform="translate(108.2570726087323 112.14195167697717) rotate(205.97997879998707)"><path class="outline" fill="#A5ABB6" stroke="none" d="M 25 0.5 L 43.458246672621044 0.5 L 43.458246672621044 -0.5 L 25 -0.5 Z M 90.34887167262104 0.5 L 108.80711834524209 0.5 L 108.80711834524209 3.5 L 115.80711834524209 0 L 108.80711834524209 -3.5 L 108.80711834524209 -0.5 L 90.34887167262104 -0.5 Z"/><text text-anchor="middle" pointer-events="none" font-size="8px" fill="#000000" x="66.90355917262104" y="3" transform="rotate(180 66.90355917262104 0)" font-family="sans-serif">DIRECTED</text></g><g class="relationship" transform="translate(108.2570726087323 112.14195167697717) rotate(500.8041512093421)"><path class="outline" fill="#A5ABB6" stroke="none" d="M 25 0.5 L 36.75448724513591 0.5 L 36.75448724513591 -0.5 L 25 -0.5 Z M 83.64511224513592 0.5 L 95.39959949027183 0.5 L 95.39959949027183 3.5 L 102.39959949027183 0 L 95.39959949027183 -3.5 L 95.39959949027183 -0.5 L 83.64511224513592 -0.5 Z"/><text text-anchor="middle" pointer-events="none" font-size="8px" fill="#000000" x="60.19979974513591" y="3" transform="rotate(180 60.19979974513591 0)" font-family="sans-serif">DIRECTED</text></g><g class="relationship" transform="translate(48.923889213589476 104.08574296097585) rotate(327.22730054167243)"><path class="outline" fill="#A5ABB6" stroke="none" d="M 24.018736134675446,6.953439040707552 L 24.277555179777966,5.987513214418485 A 154.4730052577092 154.4730052577092 0 0 0 36.578005517097466,8.750812372350566 L 36.39881495023164,9.734626755629392 A 155.4730052577092 155.4730052577092 0 0 1 24.018736134675446,6.953439040707552 Z M 88.10137832915179,10.411878757286757 L 87.94801879644749,9.423708299456365 A 154.4730052577092 154.4730052577092 0 0 0 100.31662924559014,6.983549227910221 L 99.61634148416402,4.066427864100207 L 107.23996038805119,5.835731345217622 L 101.25034626082495,10.873044379656907 L 100.55005849939884,7.955923015846893 A 155.4730052577092 155.4730052577092 0 0 1 88.10137832915179,10.411878757286757"/><text text-anchor="middle" pointer-events="none" font-size="8px" fill="#000000" x="62.22829326178328" y="14.737759506421952" font-family="sans-serif">PRODUCED</text></g><g class="relationship" transform="translate(48.923889213589476 104.08574296097585) rotate(327.22730054167243)"><path class="outline" fill="#A5ABB6" stroke="none" d="M 24.018736134675446,-6.953439040707552 L 24.277555179777966,-5.987513214418485 A 154.4730052577092 154.4730052577092 0 0 1 44.460378149358206,-9.977131296092978 L 44.33221509127367,-10.968884405764157 A 155.4730052577092 155.4730052577092 0 0 0 24.018736134675446,-6.953439040707552 Z M 80.1383706673447,-11.43790932350035 L 80.03622907854395,-10.44313945270747 A 154.4730052577092 154.4730052577092 0 0 1 100.31662924559014,-6.983549227910221 L 99.61634148416402,-4.066427864100207 L 107.23996038805119,-5.835731345217622 L 101.25034626082495,-10.873044379656907 L 100.55005849939884,-7.955923015846893 A 155.4730052577092 155.4730052577092 0 0 0 80.1383706673447,-11.43790932350035"/><text text-anchor="middle" pointer-events="none" font-size="8px" fill="#000000" x="62.22829326178324" y="-8.737759506421952" font-family="sans-serif">WROTE</text></g><g class="relationship" transform="translate(48.923889213589476 104.08574296097585) rotate(421.38633164973834)"><path class="outline" fill="#A5ABB6" stroke="none" d="M 25 0.5 L 34.47435680645842 0.5 L 34.47435680645842 -0.5 L 25 -0.5 Z M 81.36498180645842 0.5 L 90.83933861291683 0.5 L 90.83933861291683 3.5 L 97.83933861291683 0 L 90.83933861291683 -3.5 L 90.83933861291683 -0.5 L 81.36498180645842 -0.5 Z"/><text text-anchor="middle" pointer-events="none" font-size="8px" fill="#000000" x="57.91966930645842" y="3" font-family="sans-serif">DIRECTED</text></g><g class="relationship" transform="translate(48.923889213589476 104.08574296097585) rotate(279.7883464849268)"><path class="outline" fill="#A5ABB6" stroke="none" d="M 25 0.5 L 26.140035904739236 0.5 L 26.140035904739236 -0.5 L 25 -0.5 Z M 73.03066090473924 0.5 L 74.17069680947847 0.5 L 74.17069680947847 3.5 L 81.17069680947847 0 L 74.17069680947847 -3.5 L 74.17069680947847 -0.5 L 73.03066090473924 -0.5 Z"/><text text-anchor="middle" pointer-events="none" font-size="8px" fill="#000000" x="49.585348404739236" y="3" font-family="sans-serif">DIRECTED</text></g><g class="relationship" transform="translate(48.923889213589476 104.08574296097585) rotate(218.57104408668226)"><path class="outline" fill="#A5ABB6" stroke="none" d="M 25 0.5 L 25.6158753807561 0.5 L 25.6158753807561 -0.5 L 25 -0.5 Z M 53.3932191307561 0.5 L 54.0090945115122 0.5 L 54.0090945115122 3.5 L 61.0090945115122 0 L 54.0090945115122 -3.5 L 54.0090945115122 -0.5 L 53.3932191307561 -0.5 Z"/><text text-anchor="middle" pointer-events="none" font-size="8px" fill="#000000" x="39.5045472557561" y="3" transform="rotate(180 39.5045472557561 0)" font-family="sans-serif">DIR…</text></g><g class="relationship" transform="translate(48.923889213589476 104.08574296097585) rotate(473.9819971992244)"><path class="outline" fill="#A5ABB6" stroke="none" d="M 25 0.5 L 25.523513266855154 0.5 L 25.523513266855154 -0.5 L 25 -0.5 Z M 64.41413826685516 0.5 L 64.93765153371031 0.5 L 64.93765153371031 3.5 L 71.93765153371031 0 L 64.93765153371031 -3.5 L 64.93765153371031 -0.5 L 64.41413826685516 -0.5 Z"/><text text-anchor="middle" pointer-events="none" font-size="8px" fill="#000000" x="44.968825766855154" y="3" transform="rotate(180 44.968825766855154 0)" font-family="sans-serif">DIREC…</text></g><g class="relationship" transform="translate(257.8580251070074 -18.484318716522342) rotate(512.4188820907664)"><path class="outline" fill="#A5ABB6" stroke="none" d="M 25 0.5 L 28.520108503028396 0.5 L 28.520108503028396 -0.5 L 25 -0.5 Z M 75.4107335030284 0.5 L 78.93084200605679 0.5 L 78.93084200605679 3.5 L 85.93084200605679 0 L 78.93084200605679 -3.5 L 78.93084200605679 -0.5 L 75.4107335030284 -0.5 Z"/><text text-anchor="middle" pointer-events="none" font-size="8px" fill="#000000" x="51.965421003028396" y="3" transform="rotate(180 51.965421003028396 0)" font-family="sans-serif">DIRECTED</text></g></g><g class="layer nodes"><g class="node" transform="translate(107.75180742085239,211.92256019079966)"><circle class="outline" cx="0" cy="0" r="25" fill="#57C7E3" stroke="#23b3d7" stroke-width="2px"/><text text-anchor="middle" pointer-events="none" font-family="sans-serif" dy="1.5625" font-size="25" fill="#2A2C34"/><text text-anchor="middle" pointer-events="none" font-family="sans-serif" dy="1.5625" font-size="25" fill="#2A2C34"/><text text-anchor="middle" pointer-events="none" x="0" y="0" font-size="10px" fill="#2A2C34" font-family="sans-serif"> Cloud</text><text text-anchor="middle" pointer-events="none" x="0" y="10" font-size="10px" fill="#2A2C34" font-family="sans-serif"> Atlas</text></g><g class="node" transform="translate(194.7701921989664,279.70633439810024)"><circle class="outline" cx="0" cy="0" r="25" fill="#F79767" stroke="#f36924" stroke-width="2px"/><text text-anchor="middle" pointer-events="none" font-family="sans-serif" dy="1.5625" font-size="25" fill="#FFFFFF"/><text text-anchor="middle" pointer-events="none" font-family="sans-serif" dy="1.5625" font-size="25" fill="#FFFFFF"/><text text-anchor="middle" pointer-events="none" x="0" y="0" font-size="10px" fill="#FFFFFF" font-family="sans-serif"> Tom</text><text text-anchor="middle" pointer-events="none" x="0" y="10" font-size="10px" fill="#FFFFFF" font-family="sans-serif"> Tykwer</text></g><g class="node" transform="translate(108.2570726087323,112.14195167697717)"><circle class="outline" cx="0" cy="0" r="25" fill="#F79767" stroke="#f36924" stroke-width="2px"/><text text-anchor="middle" pointer-events="none" font-family="sans-serif" dy="1.5625" font-size="25" fill="#FFFFFF"/><text text-anchor="middle" pointer-events="none" font-family="sans-serif" dy="1.5625" font-size="25" fill="#FFFFFF"/><text text-anchor="middle" pointer-events="none" x="0" y="0" font-size="10px" fill="#FFFFFF" font-family="sans-serif"> Lana</text><text text-anchor="middle" pointer-events="none" x="0" y="10" font-size="10px" fill="#FFFFFF" font-family="sans-serif"> Wacho…</text></g><g class="node" transform="translate(48.923889213589476,104.08574296097585)"><circle class="outline" cx="0" cy="0" r="25" fill="#F79767" stroke="#f36924" stroke-width="2px"/><text text-anchor="middle" pointer-events="none" font-family="sans-serif" dy="1.5625" font-size="25" fill="#FFFFFF"/><text text-anchor="middle" pointer-events="none" font-family="sans-serif" dy="1.5625" font-size="25" fill="#FFFFFF"/><text text-anchor="middle" pointer-events="none" x="0" y="0" font-size="10px" fill="#FFFFFF" font-family="sans-serif"> Lilly</text><text text-anchor="middle" pointer-events="none" x="0" y="10" font-size="10px" fill="#FFFFFF" font-family="sans-serif"> Wacho…</text></g><g class="node" transform="translate(159.53378414050448,32.87710013589843)"><circle class="outline" cx="0" cy="0" r="25" fill="#57C7E3" stroke="#23b3d7" stroke-width="2px"/><text text-anchor="middle" pointer-events="none" font-family="sans-serif" dy="1.5625" font-size="25" fill="#2A2C34"/><text text-anchor="middle" pointer-events="none" font-family="sans-serif" dy="1.5625" font-size="25" fill="#2A2C34"/><text text-anchor="middle" pointer-events="none" x="0" y="0" font-size="10px" fill="#2A2C34" font-family="sans-serif"> V for</text><text text-anchor="middle" pointer-events="none" x="0" y="10" font-size="10px" fill="#2A2C34" font-family="sans-serif"> Vendetta</text></g><g class="node" transform="translate(257.8580251070074,-18.484318716522342)"><circle class="outline" cx="0" cy="0" r="25" fill="#F79767" stroke="#f36924" stroke-width="2px"/><text text-anchor="middle" pointer-events="none" font-family="sans-serif" dy="1.5625" font-size="25" fill="#FFFFFF"/><text text-anchor="middle" pointer-events="none" font-family="sans-serif" dy="1.5625" font-size="25" fill="#FFFFFF"/><text text-anchor="middle" pointer-events="none" x="0" y="0" font-size="10px" fill="#FFFFFF" font-family="sans-serif"> James</text><text text-anchor="middle" pointer-events="none" x="0" y="10" font-size="10px" fill="#FFFFFF" font-family="sans-serif"> Marshall</text></g><g class="node" transform="translate(66.9738707837121,-0.5393736522372318)"><circle class="outline" cx="0" cy="0" r="25" fill="#57C7E3" stroke="#23b3d7" stroke-width="2px"/><text text-anchor="middle" pointer-events="none" font-family="sans-serif" dy="1.5625" font-size="25" fill="#2A2C34"/><text text-anchor="middle" pointer-events="none" font-family="sans-serif" dy="1.5625" font-size="25" fill="#2A2C34"/><text text-anchor="middle" pointer-events="none" font-family="sans-serif" dy="1.5625" font-size="25" fill="#2A2C34"/><text text-anchor="middle" pointer-events="none" x="0" y="-5" font-size="10px" fill="#2A2C34" font-family="sans-serif"> The</text><text text-anchor="middle" pointer-events="none" x="0" y="5" font-size="10px" fill="#2A2C34" font-family="sans-serif"> Matrix</text><text text-anchor="middle" pointer-events="none" x="0" y="15" font-size="10px" fill="#2A2C34" font-family="sans-serif"> Revol…</text></g><g class="node" transform="translate(-18.321088509777926,50.46040091382373)"><circle class="outline" cx="0" cy="0" r="25" fill="#57C7E3" stroke="#23b3d7" stroke-width="2px"/><text text-anchor="middle" pointer-events="none" font-family="sans-serif" dy="1.5625" font-size="25" fill="#2A2C34"/><text text-anchor="middle" pointer-events="none" font-family="sans-serif" dy="1.5625" font-size="25" fill="#2A2C34"/><text text-anchor="middle" pointer-events="none" font-family="sans-serif" dy="1.5625" font-size="25" fill="#2A2C34"/><text text-anchor="middle" pointer-events="none" x="0" y="-5" font-size="10px" fill="#2A2C34" font-family="sans-serif"> The</text><text text-anchor="middle" pointer-events="none" x="0" y="5" font-size="10px" fill="#2A2C34" font-family="sans-serif"> Matrix</text><text text-anchor="middle" pointer-events="none" x="0" y="15" font-size="10px" fill="#2A2C34" font-family="sans-serif"> Reloa…</text></g><g class="node" transform="translate(9.523621502612285,192.65507845116895)"><circle class="outline" cx="0" cy="0" r="25" fill="#57C7E3" stroke="#23b3d7" stroke-width="2px"/><text text-anchor="middle" pointer-events="none" font-family="sans-serif" dy="1.5625" font-size="25" fill="#2A2C34"/><text text-anchor="middle" pointer-events="none" font-family="sans-serif" dy="1.5625" font-size="25" fill="#2A2C34"/><text text-anchor="middle" pointer-events="none" x="0" y="0" font-size="10px" fill="#2A2C34" font-family="sans-serif"> The</text><text text-anchor="middle" pointer-events="none" x="0" y="10" font-size="10px" fill="#2A2C34" font-family="sans-serif"> Matrix</text></g></g></svg>