<svg xmlns="http://www.w3.org/2000/svg" width="384.1872863769531" height="385.79522705078125" viewBox="-78.94674682617188 -75.45721435546875 384.1872863769531 385.79522705078125"><title>Neo4j Graph Visualization</title><desc>Created using Neo4j (http://www.neo4j.com/)</desc><g class="layer relationships"><g class="relationship" transform="translate(117.73496944412945 281.33802116951836) rotate(269.57069070991145)"><path class="outline" fill="#A5ABB6" stroke="none" d="M 25 0.5 L 59.918028968903755 0.5 L 59.918028968903755 -0.5 L 25 -0.5 Z M 95.69146646890376 0.5 L 130.6094954378075 0.5 L 130.6094954378075 3.5 L 137.6094954378075 0 L 130.6094954378075 -3.5 L 130.6094954378075 -0.5 L 95.69146646890376 -0.5 Z"/><text text-anchor="middle" pointer-events="none" font-size="8px" fill="#000000" x="77.80474771890376" y="3" transform="rotate(180 77.80474771890376 0)" font-family="sans-serif">WROTE</text></g><g class="relationship" transform="translate(166.49640413642933 245.45050105633896) rotate(248.4747507704381)"><path class="outline" fill="#A5ABB6" stroke="none" d="M 25 0.5 L 41.827644294156 0.5 L 41.827644294156 -0.5 L 25 -0.5 Z M 87.390144294156 0.5 L 104.217788588312 0.5 L 104.217788588312 3.5 L 111.217788588312 0 L 104.217788588312 -3.5 L 104.217788588312 -0.5 L 87.390144294156 -0.5 Z"/><text text-anchor="middle" pointer-events="none" font-size="8px" fill="#000000" x="64.608894294156" y="3" transform="rotate(180 64.608894294156 0)" font-family="sans-serif">ACTED_IN</text></g><g class="relationship" transform="translate(226.25715573110716 240.54470647424185) rotate(227.984180753165)"><path class="outline" fill="#A5ABB6" stroke="none" d="M 25 0.5 L 55.695981357914775 0.5 L 55.695981357914775 -0.5 L 25 -0.5 Z M 101.25848135791477 0.5 L 131.95446271582955 0.5 L 131.95446271582955 3.5 L 138.95446271582955 0 L 131.95446271582955 -3.5 L 131.95446271582955 -0.5 L 101.25848135791477 -0.5 Z"/><text text-anchor="middle" pointer-events="none" font-size="8px" fill="#000000" x="78.47723135791477" y="3" transform="rotate(180 78.47723135791477 0)" font-family="sans-serif">ACTED_IN</text></g><g class="relationship" transform="translate(223.09794205154523 180.6966792472589) rotate(210.1725859795469)"><path class="outline" fill="#A5ABB6" stroke="none" d="M 25 0.5 L 35.36101450237013 0.5 L 35.36101450237013 -0.5 L 25 -0.5 Z M 80.92351450237013 0.5 L 91.28452900474026 0.5 L 91.28452900474026 3.5 L 98.28452900474026 0 L 91.28452900474026 -3.5 L 91.28452900474026 -0.5 L 80.92351450237013 -0.5 Z"/><text text-anchor="middle" pointer-events="none" font-size="8px" fill="#000000" x="58.14226450237013" y="3" transform="rotate(180 58.14226450237013 0)" font-family="sans-serif">ACTED_IN</text></g><g class="relationship" transform="translate(276.24053279691753 152.84267367455132) rotate(192.0546305370433)"><path class="outline" fill="#A5ABB6" stroke="none" d="M 25 0.5 L 60.27601415779375 0.5 L 60.27601415779375 -0.5 L 25 -0.5 Z M 96.04945165779375 0.5 L 131.3254658155875 0.5 L 131.3254658155875 3.5 L 138.3254658155875 0 L 131.3254658155875 -3.5 L 131.3254658155875 -0.5 L 96.04945165779375 -0.5 Z"/><text text-anchor="middle" pointer-events="none" font-size="8px" fill="#000000" x="78.16273290779375" y="3" transform="rotate(180 78.16273290779375 0)" font-family="sans-serif">WROTE</text></g><g class="relationship" transform="translate(238.71030650698407 106.0386832033569) rotate(534.0689582484082)"><path class="outline" fill="#A5ABB6" stroke="none" d="M 25 0.5 L 35.14443086469334 0.5 L 35.14443086469334 -0.5 L 25 -0.5 Z M 80.70693086469333 0.5 L 90.85136172938668 0.5 L 90.85136172938668 3.5 L 97.85136172938668 0 L 90.85136172938668 -3.5 L 90.85136172938668 -0.5 L 80.70693086469333 -0.5 Z"/><text text-anchor="middle" pointer-events="none" font-size="8px" fill="#000000" x="57.92568086469334" y="3" transform="rotate(180 57.92568086469334 0)" font-family="sans-serif">ACTED_IN</text></g><g class="relationship" transform="translate(263.78177844791605 51.639202826668566) rotate(515.5060356495977)"><path class="outline" fill="#A5ABB6" stroke="none" d="M 25 0.5 L 54.63325921179285 0.5 L 54.63325921179285 -0.5 L 25 -0.5 Z M 100.19575921179285 0.5 L 129.8290184235857 0.5 L 129.8290184235857 3.5 L 136.8290184235857 0 L 129.8290184235857 -3.5 L 129.8290184235857 -0.5 L 100.19575921179285 -0.5 Z"/><text text-anchor="middle" pointer-events="none" font-size="8px" fill="#000000" x="77.41450921179285" y="3" transform="rotate(180 77.41450921179285 0)" font-family="sans-serif">ACTED_IN</text></g><g class="relationship" transform="translate(228.10292275180728 3.36722919799723) rotate(494.045922944967)"><path class="outline" fill="#A5ABB6" stroke="none" d="M 25 0.5 L 58.86413159794721 0.5 L 58.86413159794721 -0.5 L 25 -0.5 Z M 94.6375690979472 0.5 L 128.5017006958944 0.5 L 128.5017006958944 3.5 L 135.5017006958944 0 L 128.5017006958944 -3.5 L 128.5017006958944 -0.5 L 94.6375690979472 -0.5 Z"/><text text-anchor="middle" pointer-events="none" font-size="8px" fill="#000000" x="76.7508503479472" y="3" transform="rotate(180 76.7508503479472 0)" font-family="sans-serif">WROTE</text></g><g class="relationship" transform="translate(153.10732346339492 -46.45721936377683) rotate(462.48973215934194)"><path class="outline" fill="#A5ABB6" stroke="none" d="M 25 0.5 L 63.21044674293506 0.5 L 63.21044674293506 -0.5 L 25 -0.5 Z M 98.98388424293506 0.5 L 137.19433098587012 0.5 L 137.19433098587012 3.5 L 144.19433098587012 0 L 137.19433098587012 -3.5 L 137.19433098587012 -0.5 L 98.98388424293506 -0.5 Z"/><text text-anchor="middle" pointer-events="none" font-size="8px" fill="#000000" x="81.09716549293506" y="3" transform="rotate(180 81.09716549293506 0)" font-family="sans-serif">WROTE</text></g><g class="relationship" transform="translate(168.7129012410063 11.40409007114471) rotate(475.93462093594155)"><path class="outline" fill="#A5ABB6" stroke="none" d="M 25 0.5 L 33.39280476434076 0.5 L 33.39280476434076 -0.5 L 25 -0.5 Z M 78.95530476434075 0.5 L 87.34810952868152 0.5 L 87.34810952868152 3.5 L 94.34810952868152 0 L 87.34810952868152 -3.5 L 87.34810952868152 -0.5 L 78.95530476434075 -0.5 Z"/><text text-anchor="middle" pointer-events="none" font-size="8px" fill="#000000" x="56.17405476434076" y="3" transform="rotate(180 56.17405476434076 0)" font-family="sans-serif">ACTED_IN</text></g><g class="relationship" transform="translate(97.86026893209208 -23.095192285206114) rotate(442.5062527901149)"><path class="outline" fill="#A5ABB6" stroke="none" d="M 25 0.5 L 45.24377946476727 0.5 L 45.24377946476727 -0.5 L 25 -0.5 Z M 90.80627946476727 0.5 L 111.05005892953454 0.5 L 111.05005892953454 3.5 L 118.05005892953454 0 L 111.05005892953454 -3.5 L 111.05005892953454 -0.5 L 90.80627946476727 -0.5 Z"/><text text-anchor="middle" pointer-events="none" font-size="8px" fill="#000000" x="68.02502946476727" y="3" font-family="sans-serif">ACTED_IN</text></g><g class="relationship" transform="translate(38.08120063755052 -28.188910573051448) rotate(421.9041492302514)"><path class="outline" fill="#A5ABB6" stroke="none" d="M 25 0.5 L 56.32860542251022 0.5 L 56.32860542251022 -0.5 L 25 -0.5 Z M 103.21923042251022 0.5 L 134.54783584502044 0.5 L 134.54783584502044 3.5 L 141.54783584502044 0 L 134.54783584502044 -3.5 L 134.54783584502044 -0.5 L 103.21923042251022 -0.5 Z"/><text text-anchor="middle" pointer-events="none" font-size="8px" fill="#000000" x="79.77391792251022" y="3" font-family="sans-serif">DIRECTED</text></g><g class="relationship" transform="translate(41.074899689236815 32.46750448138869) rotate(408.82939494467126)"><path class="outline" fill="#A5ABB6" stroke="none" d="M 25 0.5 L 31.01883075380146 0.5 L 31.01883075380146 -0.5 L 25 -0.5 Z M 76.58133075380147 0.5 L 82.60016150760292 0.5 L 82.60016150760292 3.5 L 89.60016150760292 0 L 82.60016150760292 -3.5 L 82.60016150760292 -0.5 L 76.58133075380147 -0.5 Z"/><text text-anchor="middle" pointer-events="none" font-size="8px" fill="#000000" x="53.80008075380146" y="3" font-family="sans-serif">ACTED_IN</text></g><g class="relationship" transform="translate(-21.784214763588952 80.97479489728653) rotate(375.2705029306878)"><path class="outline" fill="#A5ABB6" stroke="none" d="M 25 0.5 L 45.399982028225566 0.5 L 45.399982028225566 -0.5 L 25 -0.5 Z M 90.96248202822557 0.5 L 111.36246405645113 0.5 L 111.36246405645113 3.5 L 118.36246405645113 0 L 111.36246405645113 -3.5 L 111.36246405645113 -0.5 L 90.96248202822557 -0.5 Z"/><text text-anchor="middle" pointer-events="none" font-size="8px" fill="#000000" x="68.18123202822557" y="3" font-family="sans-serif">ACTED_IN</text></g><g class="relationship" transform="translate(-18.65200099708658 21.063624945387197) rotate(395.8509442266729)"><path class="outline" fill="#A5ABB6" stroke="none" d="M 25 0.5 L 57.10020360160807 0.5 L 57.10020360160807 -0.5 L 25 -0.5 Z M 102.66270360160807 0.5 L 134.76290720321614 0.5 L 134.76290720321614 3.5 L 141.76290720321614 0 L 134.76290720321614 -3.5 L 134.76290720321614 -0.5 L 102.66270360160807 -0.5 Z"/><text text-anchor="middle" pointer-events="none" font-size="8px" fill="#000000" x="79.88145360160807" y="3" font-family="sans-serif">ACTED_IN</text></g><g class="relationship" transform="translate(-49.94674761362398 134.6010277601751) rotate(354.5547943574302)"><path class="outline" fill="#A5ABB6" stroke="none" d="M 25 0.5 L 57.32770247135011 0.5 L 57.32770247135011 -0.5 L 25 -0.5 Z M 102.89020247135011 0.5 L 135.21790494270022 0.5 L 135.21790494270022 3.5 L 142.21790494270022 0 L 135.21790494270022 -3.5 L 135.21790494270022 -0.5 L 102.89020247135011 -0.5 Z"/><text text-anchor="middle" pointer-events="none" font-size="8px" fill="#000000" x="80.10895247135011" y="3" font-family="sans-serif">ACTED_IN</text></g><g class="relationship" transform="translate(5.968522710690586 156.21961025972396) rotate(341.2683525102243)"><path class="outline" fill="#A5ABB6" stroke="none" d="M 25 0.5 L 32.08421507674802 0.5 L 32.08421507674802 -0.5 L 25 -0.5 Z M 77.64671507674802 0.5 L 84.73093015349605 0.5 L 84.73093015349605 3.5 L 91.73093015349605 0 L 84.73093015349605 -3.5 L 84.73093015349605 -0.5 L 77.64671507674802 -0.5 Z"/><text text-anchor="middle" pointer-events="none" font-size="8px" fill="#000000" x="54.86546507674802" y="3" font-family="sans-serif">ACTED_IN</text></g><g class="relationship" transform="translate(-12.759319972463594 213.16858261348153) rotate(323.8520293558165)"><path class="outline" fill="#A5ABB6" stroke="none" d="M 25 0.5 L 53.76610795549847 0.5 L 53.76610795549847 -0.5 L 25 -0.5 Z M 99.32860795549847 0.5 L 128.09471591099694 0.5 L 128.09471591099694 3.5 L 135.09471591099694 0 L 128.09471591099694 -3.5 L 128.09471591099694 -0.5 L 99.32860795549847 -0.5 Z"/><text text-anchor="middle" pointer-events="none" font-size="8px" fill="#000000" x="76.54735795549847" y="3" font-family="sans-serif">ACTED_IN</text></g><g class="relationship" transform="translate(85.58702833832933 230.72597799649458) rotate(285.43877720790107)"><path class="outline" fill="#A5ABB6" stroke="none" d="M 25 0.5 L 31.81144199807494 0.5 L 31.81144199807494 -0.5 L 25 -0.5 Z M 77.37394199807494 0.5 L 84.18538399614988 0.5 L 84.18538399614988 3.5 L 91.18538399614988 0 L 84.18538399614988 -3.5 L 84.18538399614988 -0.5 L 77.37394199807494 -0.5 Z"/><text text-anchor="middle" pointer-events="none" font-size="8px" fill="#000000" x="54.59269199807494" y="3" font-family="sans-serif">ACTED_IN</text></g><g class="relationship" transform="translate(31.610972659486265 256.76983537972063) rotate(301.59543063225533)"><path class="outline" fill="#A5ABB6" stroke="none" d="M 25 0.5 L 54.748225377085774 0.5 L 54.748225377085774 -0.5 L 25 -0.5 Z M 100.31072537708577 0.5 L 130.05895075417155 0.5 L 130.05895075417155 3.5 L 137.05895075417155 0 L 130.05895075417155 -3.5 L 130.05895075417155 -0.5 L 100.31072537708577 -0.5 Z"/><text text-anchor="middle" pointer-events="none" font-size="8px" fill="#000000" x="77.52947537708577" y="3" font-family="sans-serif">ACTED_IN</text></g></g><g class="layer nodes"><g class="node" transform="translate(117.73496944412945,281.33802116951836)"><circle class="outline" cx="0" cy="0" r="25" fill="#F79767" stroke="#f36924" stroke-width="2px"/><text text-anchor="middle" pointer-events="none" font-family="sans-serif" dy="1.5625" font-size="25" fill="#FFFFFF"/><text text-anchor="middle" pointer-events="none" font-family="sans-serif" dy="1.5625" font-size="25" fill="#FFFFFF"/><text text-anchor="middle" pointer-events="none" x="0" y="0" font-size="10px" fill="#FFFFFF" font-family="sans-serif"> Joe</text><text text-anchor="middle" pointer-events="none" x="0" y="10" font-size="10px" fill="#FFFFFF" font-family="sans-serif"> Simon</text></g><g class="node" transform="translate(116.5165705599186,118.73309039957739)"><circle class="outline" cx="0" cy="0" r="25" fill="#57C7E3" stroke="#23b3d7" stroke-width="2px"/><text text-anchor="middle" pointer-events="none" font-family="sans-serif" dy="1.5625" font-size="25" fill="#2A2C34"/><text text-anchor="middle" pointer-events="none" font-family="sans-serif" dy="1.5625" font-size="25" fill="#2A2C34"/><text text-anchor="middle" pointer-events="none" font-family="sans-serif" dy="1.5625" font-size="25" fill="#2A2C34"/><text text-anchor="middle" pointer-events="none" x="0" y="-5" font-size="10px" fill="#2A2C34" font-family="sans-serif"> Captain</text><text text-anchor="middle" pointer-events="none" x="0" y="5" font-size="10px" fill="#2A2C34" font-family="sans-serif"> America:</text><text text-anchor="middle" pointer-events="none" x="0" y="15" font-size="10px" fill="#2A2C34" font-family="sans-serif"> The Fi…</text></g><g class="node" transform="translate(166.49640413642933,245.45050105633896)"><circle class="outline" cx="0" cy="0" r="25" fill="#F79767" stroke="#f36924" stroke-width="2px"/><text text-anchor="middle" pointer-events="none" font-family="sans-serif" dy="1.5625" font-size="25" fill="#FFFFFF"/><text text-anchor="middle" pointer-events="none" font-family="sans-serif" dy="1.5625" font-size="25" fill="#FFFFFF"/><text text-anchor="middle" pointer-events="none" x="0" y="0" font-size="10px" fill="#FFFFFF" font-family="sans-serif"> Neal</text><text text-anchor="middle" pointer-events="none" x="0" y="10" font-size="10px" fill="#FFFFFF" font-family="sans-serif"> McDon…</text></g><g class="node" transform="translate(226.25715573110716,240.54470647424185)"><circle class="outline" cx="0" cy="0" r="25" fill="#F79767" stroke="#f36924" stroke-width="2px"/><text text-anchor="middle" pointer-events="none" font-family="sans-serif" dy="1.5625" font-size="25" fill="#FFFFFF"/><text text-anchor="middle" pointer-events="none" font-family="sans-serif" dy="1.5625" font-size="25" fill="#FFFFFF"/><text text-anchor="middle" pointer-events="none" x="0" y="0" font-size="10px" fill="#FFFFFF" font-family="sans-serif"> Stanley</text><text text-anchor="middle" pointer-events="none" x="0" y="10" font-size="10px" fill="#FFFFFF" font-family="sans-serif"> Tucci</text></g><g class="node" transform="translate(223.09794205154523,180.6966792472589)"><circle class="outline" cx="0" cy="0" r="25" fill="#F79767" stroke="#f36924" stroke-width="2px"/><text text-anchor="middle" pointer-events="none" font-family="sans-serif" dy="1.5625" font-size="25" fill="#FFFFFF"/><text text-anchor="middle" pointer-events="none" font-family="sans-serif" dy="1.5625" font-size="25" fill="#FFFFFF"/><text text-anchor="middle" pointer-events="none" x="0" y="0" font-size="10px" fill="#FFFFFF" font-family="sans-serif"> Richard</text><text text-anchor="middle" pointer-events="none" x="0" y="10" font-size="10px" fill="#FFFFFF" font-family="sans-serif"> Armitage</text></g><g class="node" transform="translate(276.24053279691753,152.84267367455132)"><circle class="outline" cx="0" cy="0" r="25" fill="#F79767" stroke="#f36924" stroke-width="2px"/><text text-anchor="middle" pointer-events="none" font-family="sans-serif" dy="1.5625" font-size="25" fill="#FFFFFF"/><text text-anchor="middle" pointer-events="none" x="0" y="5" font-size="10px" fill="#FFFFFF" font-family="sans-serif"> Jack Kirby</text></g><g class="node" transform="translate(238.71030650698407,106.0386832033569)"><circle class="outline" cx="0" cy="0" r="25" fill="#F79767" stroke="#f36924" stroke-width="2px"/><text text-anchor="middle" pointer-events="none" font-family="sans-serif" dy="1.5625" font-size="25" fill="#FFFFFF"/><text text-anchor="middle" pointer-events="none" x="0" y="5" font-size="10px" fill="#FFFFFF" font-family="sans-serif"> JJ Feild</text></g><g class="node" transform="translate(263.78177844791605,51.639202826668566)"><circle class="outline" cx="0" cy="0" r="25" fill="#F79767" stroke="#f36924" stroke-width="2px"/><text text-anchor="middle" pointer-events="none" font-family="sans-serif" dy="1.5625" font-size="25" fill="#FFFFFF"/><text text-anchor="middle" pointer-events="none" font-family="sans-serif" dy="1.5625" font-size="25" fill="#FFFFFF"/><text text-anchor="middle" pointer-events="none" x="0" y="0" font-size="10px" fill="#FFFFFF" font-family="sans-serif"> Hayley</text><text text-anchor="middle" pointer-events="none" x="0" y="10" font-size="10px" fill="#FFFFFF" font-family="sans-serif"> Atwell</text></g><g class="node" transform="translate(228.10292275180728,3.36722919799723)"><circle class="outline" cx="0" cy="0" r="25" fill="#F79767" stroke="#f36924" stroke-width="2px"/><text text-anchor="middle" pointer-events="none" font-family="sans-serif" dy="1.5625" font-size="25" fill="#FFFFFF"/><text text-anchor="middle" pointer-events="none" font-family="sans-serif" dy="1.5625" font-size="25" fill="#FFFFFF"/><text text-anchor="middle" pointer-events="none" x="0" y="0" font-size="10px" fill="#FFFFFF" font-family="sans-serif"> Stephen</text><text text-anchor="middle" pointer-events="none" x="0" y="10" font-size="10px" fill="#FFFFFF" font-family="sans-serif"> McFeely</text></g><g class="node" transform="translate(153.10732346339492,-46.45721936377683)"><circle class="outline" cx="0" cy="0" r="25" fill="#F79767" stroke="#f36924" stroke-width="2px"/><text text-anchor="middle" pointer-events="none" font-family="sans-serif" dy="1.5625" font-size="25" fill="#FFFFFF"/><text text-anchor="middle" pointer-events="none" x="0" y="5" font-size="10px" fill="#FFFFFF" font-family="sans-serif"> Christop…</text></g><g class="node" transform="translate(168.7129012410063,11.40409007114471)"><circle class="outline" cx="0" cy="0" r="25" fill="#F79767" stroke="#f36924" stroke-width="2px"/><text text-anchor="middle" pointer-events="none" font-family="sans-serif" dy="1.5625" font-size="25" fill="#FFFFFF"/><text text-anchor="middle" pointer-events="none" font-family="sans-serif" dy="1.5625" font-size="25" fill="#FFFFFF"/><text text-anchor="middle" pointer-events="none" x="0" y="0" font-size="10px" fill="#FFFFFF" font-family="sans-serif"> Tommy</text><text text-anchor="middle" pointer-events="none" x="0" y="10" font-size="10px" fill="#FFFFFF" font-family="sans-serif"> Lee Jon…</text></g><g class="node" transform="translate(97.86026893209208,-23.095192285206114)"><circle class="outline" cx="0" cy="0" r="25" fill="#F79767" stroke="#f36924" stroke-width="2px"/><text text-anchor="middle" pointer-events="none" font-family="sans-serif" dy="1.5625" font-size="25" fill="#FFFFFF"/><text text-anchor="middle" pointer-events="none" font-family="sans-serif" dy="1.5625" font-size="25" fill="#FFFFFF"/><text text-anchor="middle" pointer-events="none" x="0" y="0" font-size="10px" fill="#FFFFFF" font-family="sans-serif"> Bruno</text><text text-anchor="middle" pointer-events="none" x="0" y="10" font-size="10px" fill="#FFFFFF" font-family="sans-serif"> Ricci</text></g><g class="node" transform="translate(38.08120063755052,-28.188910573051448)"><circle class="outline" cx="0" cy="0" r="25" fill="#F79767" stroke="#f36924" stroke-width="2px"/><text text-anchor="middle" pointer-events="none" font-family="sans-serif" dy="1.5625" font-size="25" fill="#FFFFFF"/><text text-anchor="middle" pointer-events="none" font-family="sans-serif" dy="1.5625" font-size="25" fill="#FFFFFF"/><text text-anchor="middle" pointer-events="none" x="0" y="0" font-size="10px" fill="#FFFFFF" font-family="sans-serif"> Joe</text><text text-anchor="middle" pointer-events="none" x="0" y="10" font-size="10px" fill="#FFFFFF" font-family="sans-serif"> Johnston</text></g><g class="node" transform="translate(41.074899689236815,32.46750448138869)"><circle class="outline" cx="0" cy="0" r="25" fill="#F79767" stroke="#f36924" stroke-width="2px"/><text text-anchor="middle" pointer-events="none" font-family="sans-serif" dy="1.5625" font-size="25" fill="#FFFFFF"/><text text-anchor="middle" pointer-events="none" font-family="sans-serif" dy="1.5625" font-size="25" fill="#FFFFFF"/><text text-anchor="middle" pointer-events="none" x="0" y="0" font-size="10px" fill="#FFFFFF" font-family="sans-serif"> Toby</text><text text-anchor="middle" pointer-events="none" x="0" y="10" font-size="10px" fill="#FFFFFF" font-family="sans-serif"> Jones</text></g><g class="node" transform="translate(-21.784214763588952,80.97479489728653)"><circle class="outline" cx="0" cy="0" r="25" fill="#F79767" stroke="#f36924" stroke-width="2px"/><text text-anchor="middle" pointer-events="none" font-family="sans-serif" dy="1.5625" font-size="25" fill="#FFFFFF"/><text text-anchor="middle" pointer-events="none" x="0" y="5" font-size="10px" fill="#FFFFFF" font-family="sans-serif"> Kenneth</text></g><g class="node" transform="translate(-18.65200099708658,21.063624945387197)"><circle class="outline" cx="0" cy="0" r="25" fill="#F79767" stroke="#f36924" stroke-width="2px"/><text text-anchor="middle" pointer-events="none" font-family="sans-serif" dy="1.5625" font-size="25" fill="#FFFFFF"/><text text-anchor="middle" pointer-events="none" font-family="sans-serif" dy="1.5625" font-size="25" fill="#FFFFFF"/><text text-anchor="middle" pointer-events="none" x="0" y="0" font-size="10px" fill="#FFFFFF" font-family="sans-serif"> Dominic</text><text text-anchor="middle" pointer-events="none" x="0" y="10" font-size="10px" fill="#FFFFFF" font-family="sans-serif"> Cooper</text></g><g class="node" transform="translate(-49.94674761362398,134.6010277601751)"><circle class="outline" cx="0" cy="0" r="25" fill="#F79767" stroke="#f36924" stroke-width="2px"/><text text-anchor="middle" pointer-events="none" font-family="sans-serif" dy="1.5625" font-size="25" fill="#FFFFFF"/><text text-anchor="middle" pointer-events="none" font-family="sans-serif" dy="1.5625" font-size="25" fill="#FFFFFF"/><text text-anchor="middle" pointer-events="none" x="0" y="0" font-size="10px" fill="#FFFFFF" font-family="sans-serif"> Chris</text><text text-anchor="middle" pointer-events="none" x="0" y="10" font-size="10px" fill="#FFFFFF" font-family="sans-serif"> Evans</text></g><g class="node" transform="translate(5.968522710690586,156.21961025972396)"><circle class="outline" cx="0" cy="0" r="25" fill="#F79767" stroke="#f36924" stroke-width="2px"/><text text-anchor="middle" pointer-events="none" font-family="sans-serif" dy="1.5625" font-size="25" fill="#FFFFFF"/><text text-anchor="middle" pointer-events="none" font-family="sans-serif" dy="1.5625" font-size="25" fill="#FFFFFF"/><text text-anchor="middle" pointer-events="none" x="0" y="0" font-size="10px" fill="#FFFFFF" font-family="sans-serif"> Derek</text><text text-anchor="middle" pointer-events="none" x="0" y="10" font-size="10px" fill="#FFFFFF" font-family="sans-serif"> Luke</text></g><g class="node" transform="translate(-12.759319972463594,213.16858261348153)"><circle class="outline" cx="0" cy="0" r="25" fill="#F79767" stroke="#f36924" stroke-width="2px"/><text text-anchor="middle" pointer-events="none" font-family="sans-serif" dy="1.5625" font-size="25" fill="#FFFFFF"/><text text-anchor="middle" pointer-events="none" font-family="sans-serif" dy="1.5625" font-size="25" fill="#FFFFFF"/><text text-anchor="middle" pointer-events="none" x="0" y="0" font-size="10px" fill="#FFFFFF" font-family="sans-serif"> Hugo</text><text text-anchor="middle" pointer-events="none" x="0" y="10" font-size="10px" fill="#FFFFFF" font-family="sans-serif"> Weaving</text></g><g class="node" transform="translate(85.58702833832933,230.72597799649458)"><circle class="outline" cx="0" cy="0" r="25" fill="#F79767" stroke="#f36924" stroke-width="2px"/><text text-anchor="middle" pointer-events="none" font-family="sans-serif" dy="1.5625" font-size="25" fill="#FFFFFF"/><text text-anchor="middle" pointer-events="none" x="0" y="5" font-size="10px" fill="#FFFFFF" font-family="sans-serif"> Sebastian</text></g><g class="node" transform="translate(31.610972659486265,256.76983537972063)"><circle class="outline" cx="0" cy="0" r="25" fill="#F79767" stroke="#f36924" stroke-width="2px"/><text text-anchor="middle" pointer-events="none" font-family="sans-serif" dy="1.5625" font-size="25" fill="#FFFFFF"/><text text-anchor="middle" pointer-events="none" font-family="sans-serif" dy="1.5625" font-size="25" fill="#FFFFFF"/><text text-anchor="middle" pointer-events="none" font-family="sans-serif" dy="1.5625" font-size="25" fill="#FFFFFF"/><text text-anchor="middle" pointer-events="none" x="0" y="-5" font-size="10px" fill="#FFFFFF" font-family="sans-serif"> Samuel</text><text text-anchor="middle" pointer-events="none" x="0" y="5" font-size="10px" fill="#FFFFFF" font-family="sans-serif"> L.</text><text text-anchor="middle" pointer-events="none" x="0" y="15" font-size="10px" fill="#FFFFFF" font-family="sans-serif"> Jackson</text></g></g></svg>